<?xml version="1.0" encoding="utf-8"?>
<svg id="master-artboard" viewBox="0 0 752.70361328125 632.7005615234375" version="1.1" xmlns="http://www.w3.org/2000/svg" x="0px" y="0px" style="enable-background:new 0 0 1400 980;" width="752.70361328125px" height="632.7005615234375px"><rect id="ee-background" x="0" y="0" width="752.70361328125" height="632.7005615234375" style="fill: white; fill-opacity: 0; pointer-events: none;"/>


<g transform="matrix(2.435361352581822e-7, 1.0000020265579224, -1.0000020265579224, 2.435361352581822e-7, 861.5023193359375, -737.2793083190918)">
		<g>
			<path class="st1" d="M894.7,184.2c0,0-0.2-5.4-3.2-8.4c-4.2-4.2-18.6-11.1-18.6-11.1s0.3-5.5,5.2-5.5c4.4,0,9.7,3.7,9.7,3.7&#10;&#9;&#9;&#9;&#9;c-6.9-6.9-17.2-16.9-13.6-20.5c3.6-3.6,17.9,13.1,17.9,13.1c-1.5-12-3.1-24.3,1.2-25c4.4-0.7,5.9,13.2,6.8,23.2&#10;&#9;&#9;&#9;&#9;c4-10.5,8.6-20.8,12.5-19.7c3.8,1.1-0.1,12.4-4.2,20.6c6.9-6.9,12.5-12.6,14.6-10.5c2.1,2.1-6.4,13.4-10.4,18.5&#10;&#9;&#9;&#9;&#9;c-0.8,9.8-7,11.6-6.5,19.7L894.7,184.2z" style="fill: rgb(255, 225, 194);"/>
			<path class="st1" d="M803.4,275.4c0,0-5.4-0.2-8.4-3.2c-4.2-4.2-11.1-18.6-11.1-18.6s-5.5,0.3-5.5,5.2c0,4.4,3.7,9.7,3.7,9.7&#10;&#9;&#9;&#9;&#9;c-6.9-6.9-16.9-17.2-20.5-13.6c-3.6,3.6,13.1,17.9,13.1,17.9c-12-1.5-24.3-3.1-25,1.2c-0.7,4.4,13.2,5.9,23.2,6.8&#10;&#9;&#9;&#9;&#9;c-10.5,4-20.8,8.6-19.7,12.5c1.1,3.8,12.4-0.1,20.6-4.2c-6.9,6.9-12.6,12.5-10.5,14.6c2.1,2.1,13.4-6.4,18.5-10.4&#10;&#9;&#9;&#9;&#9;c9.8-0.8,11.6-7,19.7-6.5L803.4,275.4z" style="fill: rgb(255, 225, 194);"/>
			<path class="st2" d="M875.6,256.3c0,0-8.5,9.8-26,15.1c-17.6,5.3-49.3,1.4-49.3,1.4l-1.6,15.3c0,0,30.6,11.4,60.7,2.3&#10;&#9;&#9;&#9;&#9;c11.6,7.5,24,1.1,37.7-12.6c13.7-13.7,20.1-26,12.6-37.7c9.1-30.1-2.3-60.7-2.3-60.7l-15.3,1.6c0,0,3.9,31.7-1.4,49.3&#10;&#9;&#9;&#9;&#9;C885.4,247.9,875.6,256.3,875.6,256.3z" style="fill: rgb(253, 185, 19);"/>
			<path d="M 892 259.700012 A 13 13 0 0 1 879 272.700012 A 13 13 0 0 1 866 259.700012 A 13 13 0 0 1 879 246.700012 A 13 13 0 0 1 892 259.700012 Z" class="st3" style="fill: rgb(231, 205, 177);"/>
			<path d="M 886.7000122070312 267.3999938964844 L 884.2000122070312 247.89999389648438 L 904.9000244140625 254.5 L 890.5 266.6000061035156 L 896.5999755859375 272.70001220703125 L 892 277.29998779296875 L 885.9000244140625 271.20001220703125 L 873.7999877929688 285.70001220703125 L 867.2000122070312 264.8999938964844 Z" class="st4" style="fill: rgb(250, 166, 26);"/>
			<g>
				<path class="st5" d="M889.6,186.2c15.2,18,19.5,39.8-12.3,71.6c-31.9,31.9-53.4,27.2-71.6,12.3c-24-19.6-38.5-52.6-0.9-84.8&#10;&#9;&#9;&#9;&#9;&#9;C827.5,149.7,868,160.7,889.6,186.2z" style="fill: rgb(105, 80, 47);"/>
				<g>
					<g>
						<path class="st1" d="M844.1,205.4c-9.1,13-23.4,19.2-32.9,17.3c-14.7,16-3.6,31.9,6.6,41c9,7.6,17.7,13.8,23.3,14.9&#10;&#9;&#9;&#9;&#9;&#9;&#9;&#9;c12,2.5,30.7-2.5,43.3-15.1c12.7-12.7,17.6-31.3,15.1-43.3c-1.3-6.5-9.7-17.4-18.9-27.9C864.5,184.3,854.8,190.2,844.1,205.4z&#10;&#9;&#9;&#9;&#9;&#9;&#9;&#9;" style="fill: rgb(255, 225, 194);"/>
						<g>
							<g>
								<path class="st6" d="M838.3,245.5c-2.9-2.9-7.6-2.9-10.5,0c-2.9,2.9-2.9,7.6,0,10.5c2.9,2.9,7.6,2.9,10.5,0&#10;&#9;&#9;&#9;&#9;&#9;&#9;&#9;&#9;&#9;C841.2,253.1,841.2,248.4,838.3,245.5z" style="fill: rgb(88, 89, 91);"/>
								<path class="st6" d="M877,206.8c-2.9-2.9-7.6-2.9-10.5,0c-2.9,2.9-2.9,7.6,0,10.5c2.9,2.9,7.6,2.9,10.5,0&#10;&#9;&#9;&#9;&#9;&#9;&#9;&#9;&#9;&#9;C879.9,214.4,879.9,209.7,877,206.8z" style="fill: rgb(88, 89, 91);"/>
							</g>
							<path class="st0" d="M876.6,255.6c-11.4,11.4-21.8,9.8-24.9,6.7c-0.8-0.8-0.8-2.2,0-3l28.6-28.6c0.8-0.8,2.2-0.8,3,0&#10;&#9;&#9;&#9;&#9;&#9;&#9;&#9;&#9;C886.4,233.7,888,244.2,876.6,255.6z" style="fill: rgb(255, 255, 255);"/>
						</g>
					</g>
				</g>
				<path class="st5" d="M804.7,254.9c4.9,6.3,16.9,11.1,25,7.5c-9.8-8.4-13.1-15.4-14.9-20.7c8.9,2.7,19.2,2.7,28.7-4.1&#10;&#9;&#9;&#9;&#9;&#9;c-9.1-3-17.3-6.8-21.9-15.2c17.5,3,25.3,3.6,40.7-6.4c-9.8-7.1-12.9-11.6-13.2-16.7c10.6,5.7,18.3,4.9,23.1,2.8&#10;&#9;&#9;&#9;&#9;&#9;c1.7-5.2-2.3-11-2.3-11c5.2,1.9,12.1,9.4,13,14.7c6.9-12.7-4.1-21.8-8.7-25.2c-10.7-8-33.7-18.1-61.8,10&#10;&#9;&#9;&#9;&#9;&#9;C784.2,218.7,795.1,245.3,804.7,254.9z" style="fill: rgb(105, 80, 47);"/>
			</g>
		</g>
		<g>
			<g>
				<path class="st1" d="M796,603.6c0,0-4.8,0.2-7.5,2.9c-3.8,3.8-10,16.7-10,16.7s-5-0.3-5-4.7c0-3.9,3.3-8.8,3.3-8.8&#10;&#9;&#9;&#9;&#9;&#9;c-6.2,6.2-15.2,15.5-18.4,12.2c-3.3-3.3,11.8-16.1,11.8-16.1c-10.8,1.3-21.9,2.8-22.5-1.1c-0.6-3.9,11.9-5.3,20.9-6.1&#10;&#9;&#9;&#9;&#9;&#9;c-9.4-3.6-18.8-7.8-17.8-11.2c1-3.5,11.2,0.1,18.6,3.8c-6.2-6.2-11.4-11.3-9.5-13.2c1.9-1.9,12.1,5.8,16.6,9.4&#10;&#9;&#9;&#9;&#9;&#9;c8.8,0.7,10.5,6.3,17.8,5.8L796,603.6z" style="fill: rgb(255, 225, 194);"/>
				<path class="st1" d="M889.2,696.8c0,0-0.2,4.8-2.9,7.5c-3.8,3.8-16.7,10-16.7,10s0.3,5,4.7,5c3.9,0,8.8-3.3,8.8-3.3&#10;&#9;&#9;&#9;&#9;&#9;c-6.2,6.2-15.5,15.2-12.2,18.4c3.3,3.3,16.1-11.8,16.1-11.8c-1.3,10.8-2.8,21.9,1.1,22.5c3.9,0.6,5.3-11.9,6.1-20.9&#10;&#9;&#9;&#9;&#9;&#9;c3.6,9.4,7.8,18.8,11.2,17.8c3.5-1-0.1-11.2-3.8-18.6c6.2,6.2,11.3,11.4,13.2,9.5c1.9-1.9-5.8-12.1-9.4-16.6&#10;&#9;&#9;&#9;&#9;&#9;c-0.7-8.8-6.3-10.5-5.8-17.7L889.2,696.8z" style="fill: rgb(255, 225, 194);"/>
				<path d="M 890.799988 615.099976 A 13 13 0 0 1 877.799988 628.099976 A 13 13 0 0 1 864.799988 615.099976 A 13 13 0 0 1 877.799988 602.099976 A 13 13 0 0 1 890.799988 615.099976 Z" class="st3" style="fill: rgb(231, 205, 177);"/>
				
					<path d="M 869.400024 604.400024 H 897.800024 V 614.200025 H 869.400024 V 604.400024 Z" transform="matrix(-0.7071 -0.7071 0.7071 -0.7071 1077.546 1664.8341)" class="st0" style="fill: rgb(255, 255, 255);"/>
				<path class="st7" d="M794.4,606.6c0,0,31.7-3.9,49.3,1.4c6,1.8,10.9,4.1,14.8,6.4l4.6-4.6c5.1-5.1,21.7-1.9,21.7-1.9&#10;&#9;&#9;&#9;&#9;&#9;s3.2,16.6-1.9,21.7l-4.6,4.6c2.3,3.9,4.6,8.8,6.4,14.8c5.3,17.6,1.4,49.3,1.4,49.3l15.3,1.6c0,0,11.4-30.6,2.3-60.7&#10;&#9;&#9;&#9;&#9;&#9;c4.6-7.1,6.2-16.5,1.4-23.9c-5.4-8.2-12.4-8.7-15.7-12c-3.3-3.3-3.8-10.3-12-15.7c-7.4-4.9-16.8-3.2-23.9,1.4&#10;&#9;&#9;&#9;&#9;&#9;c-30.1-9.1-60.7,2.3-60.7,2.3L794.4,606.6z" style="fill: rgb(176, 223, 219);"/>
			</g>
			<g>
				<g>
					<g>
						<path class="st8" d="M862.4,630.4c31.4,31.4,43.9,42.7,43.9,42.7s-13,18.9-38.9,44.7c-27.8,27.8-66.5,9-76.8-15.7&#10;&#9;&#9;&#9;&#9;&#9;&#9;&#9;c-24.7-10.3-43.4-49.1-15.7-76.8c25.8-25.8,44.7-38.9,44.7-38.9S831,599,862.4,630.4z" style="fill: rgb(151, 115, 72);"/>
						<g>
							<path class="st1" d="M818.5,674.3c17-9.7,36.7,0.5,50.6,17.3c11-12,22.2-25.6,23.7-33.2c2.5-12-2.5-30.7-15.1-43.3&#10;&#9;&#9;&#9;&#9;&#9;&#9;&#9;&#9;c-12.7-12.7-31.3-17.6-43.3-15.1c-5.7,1.2-14.7,7.6-23.8,15.4C786.1,641.9,824.1,658.4,818.5,674.3z" style="fill: rgb(255, 225, 194);"/>
							<g>
								<g>
									<path class="st6" d="M859.8,661.2c-2.9,2.9-2.9,7.6,0,10.5c2.9,2.9,7.6,2.9,10.5,0c2.9-2.9,2.9-7.6,0-10.5&#10;&#9;&#9;&#9;&#9;&#9;&#9;&#9;&#9;&#9;&#9;C867.4,658.3,862.7,658.3,859.8,661.2z" style="fill: rgb(88, 89, 91);"/>
									<path class="st6" d="M821.1,622.6c-2.9,2.9-2.9,7.6,0,10.5c2.9,2.9,7.6,2.9,10.5,0c2.9-2.9,2.9-7.6,0-10.5&#10;&#9;&#9;&#9;&#9;&#9;&#9;&#9;&#9;&#9;&#9;C828.7,619.7,824,619.7,821.1,622.6z" style="fill: rgb(88, 89, 91);"/>
								</g>
								<path class="st0" d="M869.8,623c11.4,11.4,9.8,21.8,6.7,24.9c-0.8,0.8-2.2,0.8-3,0L845,619.3c-0.8-0.8-0.8-2.2,0-3&#10;&#9;&#9;&#9;&#9;&#9;&#9;&#9;&#9;&#9;C848,613.2,858.4,611.6,869.8,623z" style="fill: rgb(255, 255, 255);"/>
							</g>
						</g>
					</g>
				</g>
			</g>
		</g>
		<g>
			<g>
				<path class="st1" d="M1117,337.3c0,0-0.2-5.4-3.2-8.4c-4.2-4.2-18.6-11.1-18.6-11.1s0.3-5.5,5.2-5.5c4.4,0,9.7,3.7,9.7,3.7&#10;&#9;&#9;&#9;&#9;&#9;c-6.9-6.9-17.2-16.9-13.6-20.5c3.6-3.6,17.9,13.1,17.9,13.1c-1.5-12-3.1-24.3,1.2-25c4.4-0.7,5.9,13.2,6.8,23.2&#10;&#9;&#9;&#9;&#9;&#9;c4-10.5,8.6-20.8,12.5-19.7c3.8,1.1-0.1,12.4-4.2,20.6c6.9-6.9,12.5-12.6,14.6-10.5s-6.4,13.4-10.4,18.5&#10;&#9;&#9;&#9;&#9;&#9;c-0.8,9.8-7,11.6-6.5,19.7L1117,337.3z" style="fill: rgb(255, 225, 194);"/>
				<path class="st1" d="M1025.7,428.6c0,0-5.4-0.2-8.4-3.2c-4.2-4.2-11.1-18.6-11.1-18.6s-5.5,0.3-5.5,5.2c0,4.4,3.7,9.7,3.7,9.7&#10;&#9;&#9;&#9;&#9;&#9;c-6.9-6.9-16.9-17.2-20.5-13.6c-3.6,3.6,13.1,17.9,13.1,17.9c-12-1.5-24.3-3.1-25,1.2c-0.7,4.4,13.2,5.9,23.2,6.8&#10;&#9;&#9;&#9;&#9;&#9;c-10.5,4-20.8,8.6-19.7,12.5c1.1,3.8,12.4-0.1,20.6-4.2c-6.9,6.9-12.6,12.5-10.5,14.6c2.1,2.1,13.4-6.4,18.5-10.4&#10;&#9;&#9;&#9;&#9;&#9;c9.8-0.8,11.6-7,19.7-6.5L1025.7,428.6z" style="fill: rgb(255, 225, 194);"/>
				<path class="st9" d="M1097.9,409.5c0,0-8.5,9.8-26,15.1c-17.6,5.3-49.3,1.4-49.3,1.4l-1.6,15.3c0,0,30.6,11.4,60.7,2.3&#10;&#9;&#9;&#9;&#9;&#9;c11.6,7.5,24,1.1,37.7-12.6c13.7-13.7,20.1-26,12.6-37.7c9.1-30.1-2.3-60.7-2.3-60.7l-15.3,1.6c0,0,3.9,31.7-1.4,49.3&#10;&#9;&#9;&#9;&#9;&#9;C1107.7,401,1097.9,409.5,1097.9,409.5z" style="fill: rgb(57, 187, 157);"/>
				<g>
					<path class="st10" d="M1111.8,339.4c15.2,18,19.6,39.8-12.3,71.6c-31.9,31.9-53.4,27.2-71.6,12.3c-24-19.6-38.5-52.6-0.9-84.8&#10;&#9;&#9;&#9;&#9;&#9;&#9;C1049.8,302.9,1090.2,313.8,1111.8,339.4z" style="fill: rgb(255, 203, 5);"/>
					<g>
						<g>
							<path class="st1" d="M1056,342.9c-9.1,13-13,34.8-22.5,32.9c-14.7,16-3.6,31.9,6.6,41c9,7.6,17.7,13.8,23.3,14.9&#10;&#9;&#9;&#9;&#9;&#9;&#9;&#9;&#9;c12,2.5,30.7-2.5,43.3-15.1c12.7-12.7,17.6-31.3,15.1-43.3c-1.3-6.5-9.7-17.4-18.9-27.9&#10;&#9;&#9;&#9;&#9;&#9;&#9;&#9;&#9;C1086.7,337.4,1066.7,327.7,1056,342.9z" style="fill: rgb(255, 225, 194);"/>
							<g>
								<g>
									<path class="st6" d="M1060.6,398.6c-2.9-2.9-7.6-2.9-10.5,0c-2.9,2.9-2.9,7.6,0,10.5c2.9,2.9,7.6,2.9,10.5,0&#10;&#9;&#9;&#9;&#9;&#9;&#9;&#9;&#9;&#9;&#9;C1063.5,406.2,1063.5,401.5,1060.6,398.6z" style="fill: rgb(88, 89, 91);"/>
									<path class="st6" d="M1099.2,360c-2.9-2.9-7.6-2.9-10.5,0c-2.9,2.9-2.9,7.6,0,10.5c2.9,2.9,7.6,2.9,10.5,0&#10;&#9;&#9;&#9;&#9;&#9;&#9;&#9;&#9;&#9;&#9;C1102.1,367.6,1102.1,362.9,1099.2,360z" style="fill: rgb(88, 89, 91);"/>
								</g>
								<path class="st0" d="M1098.8,408.7c-11.4,11.4-21.8,9.8-24.9,6.7c-0.8-0.8-0.8-2.2,0-3l28.6-28.6c0.8-0.8,2.2-0.8,3,0&#10;&#9;&#9;&#9;&#9;&#9;&#9;&#9;&#9;&#9;C1108.6,386.9,1110.2,397.3,1098.8,408.7z" style="fill: rgb(255, 255, 255);"/>
							</g>
						</g>
					</g>
				</g>
			</g>
			<path class="st10" d="M1055.2,429.6c-18.3-35.3,12.8-64,10.8-88.5c28.4,28.8,36.7,13.8,51.4,21.7c-6.1-25.7-47.5-50.1-81-16.6&#10;&#9;&#9;&#9;&#9;C1003,379.6,1025.7,419.6,1055.2,429.6z" style="fill: rgb(255, 203, 5);"/>
		</g>
		<g>
			<g>
				<g>
					<path class="st1" d="M1106.2,518.6c0,0-3.9-3.6-8.2-3.6c-5.9,0-21,5.3-21,5.3s-3.7-4.1-0.2-7.6c3.1-3.1,9.5-4.3,9.5-4.3&#10;&#9;&#9;&#9;&#9;&#9;&#9;c-9.8,0-24.1,0.2-24.1-4.9c0-5.1,22-3.4,22-3.4c-9.5-7.4-19.4-15-16.8-18.5c2.6-3.6,13.5,5.1,21.2,11.6&#10;&#9;&#9;&#9;&#9;&#9;&#9;c-4.6-10.3-8.6-20.8-5.1-22.8c3.5-1.9,8.7,8.8,11.6,17.5c0-9.7-0.1-17.8,2.9-17.8s4.9,14,5.7,20.4c6.4,7.5,3.2,13.2,9.4,18.5&#10;&#9;&#9;&#9;&#9;&#9;&#9;L1106.2,518.6z" style="fill: rgb(255, 225, 194);"/>
					<path class="st1" d="M1106.2,647.7c0,0-3.9,3.6-8.2,3.6c-5.9,0-21-5.3-21-5.3s-3.7,4.1-0.2,7.6c3.1,3.1,9.5,4.3,9.5,4.3&#10;&#9;&#9;&#9;&#9;&#9;&#9;c-9.8,0-24.1-0.2-24.1,4.9c0,5.1,22,3.4,22,3.4c-9.5,7.4-19.4,15-16.8,18.5c2.6,3.6,13.5-5.1,21.2-11.6&#10;&#9;&#9;&#9;&#9;&#9;&#9;c-4.6,10.3-8.6,20.8-5.1,22.8c3.5,1.9,8.7-8.8,11.6-17.5c0,9.7-0.1,17.8,2.9,17.8s4.9-14,5.7-20.4c6.4-7.5,3.2-13.2,9.4-18.5&#10;&#9;&#9;&#9;&#9;&#9;&#9;L1106.2,647.7z" style="fill: rgb(255, 225, 194);"/>
					<path class="st11" d="M1102,518.2c0,0,25.2,19.7,33.9,35.9c8.9,16.5,8.9,41.7,0,58.1c-8.7,16.2-33.9,35.9-33.9,35.9l9.7,11.9&#10;&#9;&#9;&#9;&#9;&#9;&#9;c0,0,29.7-13.5,44.6-41.3c8.3-1.8,16-7.2,17.9-15.9c2-9.6-2.6-14.9-2.6-19.6c0-4.6,4.6-10,2.6-19.6&#10;&#9;&#9;&#9;&#9;&#9;&#9;c-1.8-8.7-9.6-14.2-17.9-15.9c-14.9-27.8-44.6-41.3-44.6-41.3L1102,518.2z" style="fill: rgb(237, 28, 36);"/>
				</g>
			</g>
			<g>
				<g>
					<path class="st8" d="M1136.6,583.1c0-44.4-17.8-54.5-65.1-54.5c-43.9,0-39.6,109,0,109C1118.8,637.6,1136.6,627.5,1136.6,583.1&#10;&#9;&#9;&#9;&#9;&#9;&#9;z" style="fill: rgb(151, 115, 72);"/>
					<path class="st1" d="M1085.4,570.6c2.8,15.6-3,30.1-11,35.5c0.9,21.7,20,25.1,33.7,24.3c11.7-1,22.3-2.8,27-5.9&#10;&#9;&#9;&#9;&#9;&#9;&#9;c10.2-6.8,19.9-23.4,19.9-41.3c0-17.9-9.7-34.5-19.9-41.3c-5.6-3.7-19.2-5.5-33.1-6.4C1084.9,541.3,1082.2,552.3,1085.4,570.6z&#10;&#9;&#9;&#9;&#9;&#9;&#9;" style="fill: rgb(255, 225, 194);"/>
					<g>
						<path class="st0" d="M1143.8,583.1c0,16.1-8.5,22.3-12.8,22.3c-1.2,0-2.1-1-2.1-2.1v-40.4c0-1.2,1-2.1,2.1-2.1&#10;&#9;&#9;&#9;&#9;&#9;&#9;&#9;C1135.3,560.8,1143.8,567,1143.8,583.1z" style="fill: rgb(255, 255, 255);"/>
					</g>
				</g>
				<path class="st6" d="M1109.7,603.3c-4.1,0-7.4,3.3-7.4,7.4c0,4.1,3.3,7.4,7.4,7.4c4.1,0,7.4-3.3,7.4-7.4&#10;&#9;&#9;&#9;&#9;&#9;C1117.1,606.7,1113.8,603.3,1109.7,603.3z" style="fill: rgb(88, 89, 91);"/>
				<path class="st6" d="M1109.7,548.7c-4.1,0-7.4,3.3-7.4,7.4c0,4.1,3.3,7.4,7.4,7.4c4.1,0,7.4-3.3,7.4-7.4&#10;&#9;&#9;&#9;&#9;&#9;C1117.1,552,1113.8,548.7,1109.7,548.7z" style="fill: rgb(88, 89, 91);"/>
			</g>
		</g>
		<g>
			<g>
				<g>
					<path class="st1" d="M986.6,631.5c0,0-3.5-3.3-7.4-3.3c-5.3,0-18.9,4.8-18.9,4.8s-3.3-3.7-0.2-6.9c2.8-2.8,8.5-3.8,8.5-3.8&#10;&#9;&#9;&#9;&#9;&#9;&#9;c-8.8,0-21.7,0.2-21.7-4.4c0-4.6,19.8-3.1,19.8-3.1c-8.6-6.7-17.5-13.5-15.2-16.7c2.4-3.2,12.2,4.6,19.1,10.5&#10;&#9;&#9;&#9;&#9;&#9;&#9;c-4.1-9.2-7.8-18.8-4.6-20.5c3.1-1.7,7.9,7.9,10.5,15.8c0-8.7-0.1-16,2.6-16c2.7,0,4.5,12.6,5.1,18.4&#10;&#9;&#9;&#9;&#9;&#9;&#9;c5.8,6.7,2.9,11.9,8.4,16.7L986.6,631.5z" style="fill: rgb(255, 225, 194);"/>
					<path class="st1" d="M986.5,763.3c0,0-3.5,3.3-7.4,3.3c-5.3,0-18.9-4.8-18.9-4.8s-3.3,3.7-0.2,6.9c2.8,2.8,8.5,3.8,8.5,3.8&#10;&#9;&#9;&#9;&#9;&#9;&#9;c-8.8,0-21.7-0.2-21.7,4.4c0,4.6,19.8,3.1,19.8,3.1c-8.6,6.7-17.5,13.5-15.2,16.7c2.4,3.2,12.2-4.6,19.1-10.5&#10;&#9;&#9;&#9;&#9;&#9;&#9;c-4.1,9.2-7.8,18.8-4.6,20.5c3.1,1.7,7.9-7.9,10.5-15.8c0,8.7-0.1,16,2.6,16c2.7,0,4.5-12.6,5.1-18.4&#10;&#9;&#9;&#9;&#9;&#9;&#9;c5.8-6.7,2.9-11.9,8.4-16.7L986.5,763.3z" style="fill: rgb(255, 225, 194);"/>
					<path d="M 1049.300049 697.400024 A 13 13 0 0 1 1036.300049 710.400024 A 13 13 0 0 1 1023.300049 697.400024 A 13 13 0 0 1 1036.300049 684.400024 A 13 13 0 0 1 1049.300049 697.400024 Z" class="st3" style="fill: rgb(231, 205, 177);"/>
					<path d="M 1039.599976 683.200012 H 1049.399976 V 711.600012 H 1039.599976 V 683.200012 Z" class="st0" style="fill: rgb(255, 255, 255);"/>
					<path class="st12" d="M983.3,632.5c0,0,25.2,19.7,33.9,35.9c3,5.5,4.8,10.7,6,15h6.6c7.2,0,16.7,14,16.7,14s-9.5,14-16.7,14&#10;&#9;&#9;&#9;&#9;&#9;&#9;h-6.6c-1.1,4.4-3,9.5-6,15c-8.7,16.2-33.9,35.9-33.9,35.9l9.7,11.9c0,0,29.7-13.5,44.6-41.3c8.3-1.8,16-7.2,17.9-15.9&#10;&#9;&#9;&#9;&#9;&#9;&#9;c2-9.6-2.6-14.9-2.6-19.6c0-4.6,4.6-10,2.6-19.6c-1.8-8.7-9.6-14.2-17.9-15.9c-14.9-27.8-44.6-41.3-44.6-41.3L983.3,632.5z" style="fill: rgb(241, 115, 172);"/>
				</g>
			</g>
			<g>
				<path d="M1027.6,702.9c0-71.8-19.5-70.8-46.4-70.8c-39.5,0-62.2,18.5-62.2,65.3c0,46.9,22.7,65.3,62.2,65.3&#10;&#9;&#9;&#9;&#9;&#9;C1008.4,762.8,1027.6,760.1,1027.6,702.9z"/>
				<g>
					<g>
						<g>
							<g>
								<g>
									<path class="st1" d="M944.7,708.6c18.9,5.1,33,14,31,35.7c16.2-0.7,33.8-2.4,40.3-6.7c10.2-6.8,19.9-23.4,19.9-41.3&#10;&#9;&#9;&#9;&#9;&#9;&#9;&#9;&#9;&#9;&#9;c0-17.9-9.7-34.5-19.9-41.3c-4.8-3.2-15.7-5-27.7-6C952,650.4,959.8,701.3,944.7,708.6z" style="fill: rgb(255, 225, 194);"/>
									<g>
										<g>
											<path class="st6" d="M990.5,716.1c-4.1,0-7.4,3.3-7.4,7.4c0,4.1,3.3,7.4,7.4,7.4c4.1,0,7.4-3.3,7.4-7.4&#10;&#9;&#9;&#9;&#9;&#9;&#9;&#9;&#9;&#9;&#9;&#9;&#9;C997.9,719.4,994.6,716.1,990.5,716.1z" style="fill: rgb(88, 89, 91);"/>
											<path class="st6" d="M990.5,661.4c-4.1,0-7.4,3.3-7.4,7.4c0,4.1,3.3,7.4,7.4,7.4c4.1,0,7.4-3.3,7.4-7.4&#10;&#9;&#9;&#9;&#9;&#9;&#9;&#9;&#9;&#9;&#9;&#9;&#9;C997.9,664.7,994.6,661.4,990.5,661.4z" style="fill: rgb(88, 89, 91);"/>
										</g>
										<path class="st0" d="M1024.6,696.2c0,16.1-8.5,22.3-12.8,22.3c-1.2,0-2.1-1-2.1-2.1V676c0-1.2,1-2.1,2.1-2.1&#10;&#9;&#9;&#9;&#9;&#9;&#9;&#9;&#9;&#9;&#9;&#9;C1016.1,673.8,1024.6,680.1,1024.6,696.2z" style="fill: rgb(255, 255, 255);"/>
									</g>
								</g>
							</g>
						</g>
					</g>
				</g>
				<g>
					<path d="M953,705.5c7.7-3.8,19.7-4.1,26.9-2c-0.4-27.3-2.1-56.2-3.8-64.1c-31.4,0-51,17.1-51,57c0,39.9,17.3,59.8,52.3,59.8&#10;&#9;&#9;&#9;&#9;&#9;&#9;c2-5.7,2.7-23.6,2.6-43.8C975.1,710.1,963.6,705.2,953,705.5z"/>
				</g>
			</g>
		</g>
		<g>
			<g>
				<g>
					<path class="st1" d="M941.1,332c0,0-0.2-5.4-3.2-8.4c-4.2-4.2-18.6-11.1-18.6-11.1s0.3-5.5,5.2-5.5c4.4,0,9.7,3.7,9.7,3.7&#10;&#9;&#9;&#9;&#9;&#9;&#9;c-6.9-6.9-17.2-16.9-13.6-20.5c3.6-3.6,17.9,13.1,17.9,13.1c-1.5-12-3.1-24.3,1.2-25c4.4-0.7,5.9,13.2,6.8,23.2&#10;&#9;&#9;&#9;&#9;&#9;&#9;c4-10.5,8.6-20.8,12.5-19.7c3.8,1.1-0.1,12.4-4.2,20.6c6.9-6.9,12.5-12.6,14.6-10.5c2.1,2.1-6.4,13.4-10.4,18.5&#10;&#9;&#9;&#9;&#9;&#9;&#9;c-0.8,9.8-7,11.6-6.5,19.7L941.1,332z" style="fill: rgb(255, 225, 194);"/>
					<path class="st1" d="M849.8,423.3c0,0-5.4-0.2-8.4-3.2c-4.2-4.2-11.1-18.6-11.1-18.6s-5.5,0.3-5.5,5.2c0,4.4,3.7,9.7,3.7,9.7&#10;&#9;&#9;&#9;&#9;&#9;&#9;c-6.9-6.9-16.9-17.2-20.5-13.6c-3.6,3.6,13.1,17.9,13.1,17.9c-12-1.5-24.3-3.1-25,1.2c-0.7,4.4,13.2,5.9,23.2,6.8&#10;&#9;&#9;&#9;&#9;&#9;&#9;c-10.5,4-20.8,8.6-19.7,12.5c1.1,3.8,12.4-0.1,20.6-4.2c-6.9,6.9-12.6,12.5-10.5,14.6c2.1,2.1,13.4-6.4,18.5-10.4&#10;&#9;&#9;&#9;&#9;&#9;&#9;c9.8-0.8,11.6-7,19.7-6.5L849.8,423.3z" style="fill: rgb(255, 225, 194);"/>
					<path class="st13" d="M938.5,328.8c0,0,3.9,31.7-1.4,49.3c-5.4,17.9-23.2,35.8-41.1,41.1c-17.6,5.3-49.3,1.4-49.3,1.4&#10;&#9;&#9;&#9;&#9;&#9;&#9;l-1.6,15.3c0,0,30.6,11.4,60.7,2.3c7.1,4.6,16.5,6.2,23.9,1.4c8.2-5.4,8.7-12.4,12-15.7c3.3-3.3,10.3-3.8,15.7-12&#10;&#9;&#9;&#9;&#9;&#9;&#9;c4.9-7.4,3.2-16.8-1.4-23.9c9.1-30.1-2.3-60.7-2.3-60.7L938.5,328.8z" style="fill: rgb(242, 101, 34);"/>
				</g>
			</g>
			<g>
				<path d="M 972.799988 387.600006 A 11 11 0 0 1 961.799988 398.600006 A 11 11 0 0 1 950.799988 387.600006 A 11 11 0 0 1 961.799988 376.600006 A 11 11 0 0 1 972.799988 387.600006 Z" class="st10" style="fill: rgb(255, 203, 5);"/>
				<g>
					<g>
						<g>
							<path class="st1" d="M863.2,333.3c-17.6,20.4-9.7,34.2-26.6,54.2c12.1,12.1,38.3,37.6,50.2,40.1c12,2.5,30.7-2.5,43.3-15.1&#10;&#9;&#9;&#9;&#9;&#9;&#9;&#9;&#9;c12.7-12.7,17.6-31.3,15.1-43.3c-2.6-12.6-30.9-41.1-42-52.1C903.8,322.7,872.6,322.5,863.2,333.3z" style="fill: rgb(255, 225, 194);"/>
							<g>
								<g>
									<path class="st6" d="M884,394.5c-2.9-2.9-7.6-2.9-10.5,0c-2.9,2.9-2.9,7.6,0,10.5c2.9,2.9,7.6,2.9,10.5,0&#10;&#9;&#9;&#9;&#9;&#9;&#9;&#9;&#9;&#9;&#9;C886.9,402.1,886.9,397.4,884,394.5z" style="fill: rgb(88, 89, 91);"/>
									<path class="st6" d="M922.7,355.8c-2.9-2.9-7.6-2.9-10.5,0c-2.9,2.9-2.9,7.6,0,10.5c2.9,2.9,7.6,2.9,10.5,0&#10;&#9;&#9;&#9;&#9;&#9;&#9;&#9;&#9;&#9;&#9;C925.6,363.4,925.6,358.7,922.7,355.8z" style="fill: rgb(88, 89, 91);"/>
								</g>
								<path class="st0" d="M922.2,404.5c-11.4,11.4-21.8,9.8-24.9,6.7c-0.8-0.8-0.8-2.2,0-3l28.6-28.6c0.8-0.8,2.2-0.8,3,0&#10;&#9;&#9;&#9;&#9;&#9;&#9;&#9;&#9;&#9;C932,382.7,933.6,393.1,922.2,404.5z" style="fill: rgb(255, 255, 255);"/>
							</g>
						</g>
					</g>
				</g>
				<path d="M 960.300024 346 A 17.4 17.4 0 0 1 942.900024 363.4 A 17.4 17.4 0 0 1 925.500025 346 A 17.4 17.4 0 0 1 942.900024 328.6 A 17.4 17.4 0 0 1 960.300024 346 Z" class="st10" style="fill: rgb(255, 203, 5);"/>
				<path d="M 974.899976 366.100006 A 14.3 14.3 0 0 1 960.599976 380.400006 A 14.3 14.3 0 0 1 946.299975 366.100006 A 14.3 14.3 0 0 1 960.599976 351.800006 A 14.3 14.3 0 0 1 974.899976 366.100006 Z" class="st10" style="fill: rgb(255, 203, 5);"/>
				<path class="st10" d="M862.2,411.8c-16.9-16.9-14.7-36.7-4.2-60.1c29.6,25.4,52.1-28.6,74-4.4c-3.5-42.6-50-59.5-89.1-20.6&#10;&#9;&#9;&#9;&#9;&#9;C805.7,363.8,823.6,400.9,862.2,411.8z" style="fill: rgb(255, 203, 5);"/>
			</g>
		</g>
		<g>
			<path class="st8" d="M1134.6,729.6c-44.4,0-58.9,17.8-58.9,17.8s-6.5-0.9-6.5,56.2c0,34.7,29.3,46,65.4,46&#10;&#9;&#9;&#9;&#9;c36.1,0,65.4-11.3,65.4-46c0-57-6.5-56.2-6.5-56.2S1179,729.6,1134.6,729.6z" style="fill: rgb(151, 115, 72);"/>
			<g>
				<g>
					<path class="st1" d="M1070,773c0,0-3.6,3.9-3.6,8.2c0,5.9,5.3,21,5.3,21s-4.1,3.7-7.6,0.2c-3.1-3.1-4.3-9.5-4.3-9.5&#10;&#9;&#9;&#9;&#9;&#9;&#9;c0,9.8,0.2,24.1-4.9,24.1s-3.4-22-3.4-22c-7.4,9.5-15,19.4-18.5,16.8c-3.6-2.6,5.1-13.5,11.6-21.2c-10.3,4.6-20.8,8.6-22.8,5.1&#10;&#9;&#9;&#9;&#9;&#9;&#9;c-1.9-3.5,8.8-8.7,17.5-11.6c-9.7,0-17.8,0.1-17.8-2.9c0-3,14-4.9,20.4-5.7c7.5-6.4,13.2-3.2,18.5-9.4L1070,773z" style="fill: rgb(255, 225, 194);"/>
					<path class="st1" d="M1199.1,773c0,0,3.6,3.9,3.6,8.2c0,5.9-5.3,21-5.3,21s4.1,3.7,7.6,0.2c3.1-3.1,4.3-9.5,4.3-9.5&#10;&#9;&#9;&#9;&#9;&#9;&#9;c0,9.8-0.2,24.1,4.9,24.1s3.4-22,3.4-22c7.4,9.5,15,19.4,18.5,16.8c3.6-2.6-5.1-13.5-11.6-21.2c10.3,4.6,20.8,8.6,22.8,5.1&#10;&#9;&#9;&#9;&#9;&#9;&#9;c1.9-3.5-8.8-8.7-17.5-11.6c9.7,0,17.8,0.1,17.8-2.9c0-3-14-4.9-20.4-5.7c-7.5-6.4-13.2-3.2-18.5-9.4L1199.1,773z" style="fill: rgb(255, 225, 194);"/>
					<path class="st14" d="M1069.7,777.1c0,0,19.7-25.2,35.9-33.9c16.5-8.9,41.7-8.9,58.1,0c16.2,8.7,35.9,33.9,35.9,33.9l11.9-9.7&#10;&#9;&#9;&#9;&#9;&#9;&#9;c0,0-13.5-29.7-41.3-44.6c-1.8-8.3-7.2-16-15.9-17.9c-9.6-2-14.9,2.6-19.6,2.6s-10-4.6-19.6-2.6c-8.7,1.8-14.2,9.6-15.9,17.9&#10;&#9;&#9;&#9;&#9;&#9;&#9;c-27.8,14.9-41.3,44.6-41.3,44.6L1069.7,777.1z" style="fill: rgb(141, 198, 63);"/>
					<g>
						<path class="st15" d="M1160.5,735.5c4.3-19.1-21.5-20.9-25.9-11.2c-4.4-9.8-30.1-7.9-25.9,11.2H1160.5z" style="fill: rgb(191, 215, 48);"/>
					</g>
				</g>
			</g>
			<g>
				<g>
					<g>
						<path class="st1" d="M1111.3,799.6c26.8-2,45.8,10,71.8,7.8c0-17.1-0.5-53.7-7.2-63.9c-6.8-10.2-23.4-19.9-41.3-19.9&#10;&#9;&#9;&#9;&#9;&#9;&#9;&#9;s-34.5,9.7-41.3,19.9c-7.1,10.7-7.2,51-7.2,66.5C1089.7,805.7,1097,800.7,1111.3,799.6z" style="fill: rgb(255, 225, 194);"/>
						<g>
							<g>
								<path class="st6" d="M1154.5,769c0,4.1,3.3,7.4,7.4,7.4c4.1,0,7.4-3.3,7.4-7.4c0-4.1-3.3-7.4-7.4-7.4&#10;&#9;&#9;&#9;&#9;&#9;&#9;&#9;&#9;&#9;C1157.8,761.6,1154.5,764.9,1154.5,769z" style="fill: rgb(88, 89, 91);"/>
								<path class="st6" d="M1099.8,769c0,4.1,3.3,7.4,7.4,7.4c4.1,0,7.4-3.3,7.4-7.4c0-4.1-3.3-7.4-7.4-7.4&#10;&#9;&#9;&#9;&#9;&#9;&#9;&#9;&#9;&#9;C1103.1,761.6,1099.8,764.9,1099.8,769z" style="fill: rgb(88, 89, 91);"/>
							</g>
							<path class="st0" d="M1134.6,734.8c16.1,0,22.3,8.5,22.3,12.8c0,1.2-1,2.1-2.1,2.1h-40.4c-1.2,0-2.1-1-2.1-2.1&#10;&#9;&#9;&#9;&#9;&#9;&#9;&#9;&#9;C1112.2,743.3,1118.5,734.8,1134.6,734.8z" style="fill: rgb(255, 255, 255);"/>
						</g>
					</g>
				</g>
			</g>
		</g>
		<g>
			<path class="st16" d="M1037.3,294.2c38.3,0,52.5-26.5,53.4-33.3c1.1-8.5,2.3-19.3,2.3-32.3c0-34.4-16.1-54.2-56.9-54.2&#10;&#9;&#9;&#9;&#9;c-40.8,0-56.9,19.8-56.9,54.2c0,17.7,2,25.8,2.9,32.7C982.5,263.5,987.5,294.2,1037.3,294.2z" style="fill: rgb(241, 91, 64);"/>
			<g>
				<path class="st1" d="M1100.4,238.9c0,0,3.6-3.9,3.6-8.2c0-5.9-5.3-21-5.3-21s4.1-3.7,7.6-0.2c3.1,3.1,4.3,9.5,4.3,9.5&#10;&#9;&#9;&#9;&#9;&#9;c0-9.8-0.2-24.1,4.9-24.1s3.4,22,3.4,22c7.4-9.5,15-19.4,18.5-16.8c3.6,2.6-5.1,13.5-11.6,21.2c10.3-4.6,20.8-8.6,22.8-5.1&#10;&#9;&#9;&#9;&#9;&#9;c1.9,3.5-8.8,8.7-17.5,11.6c9.7,0,17.8-0.1,17.8,2.9c0,3-14,4.9-20.4,5.7c-7.5,6.4-13.2,3.2-18.5,9.4L1100.4,238.9z" style="fill: rgb(255, 225, 194);"/>
				<path class="st1" d="M971.3,238.9c0,0-3.6-3.9-3.6-8.2c0-5.9,5.3-21,5.3-21s-4.1-3.7-7.6-0.2c-3.1,3.1-4.3,9.5-4.3,9.5&#10;&#9;&#9;&#9;&#9;&#9;c0-9.8,0.2-24.1-4.9-24.1c-5.1,0-3.4,22-3.4,22c-7.4-9.5-15-19.4-18.5-16.8c-3.6,2.6,5.1,13.5,11.6,21.2&#10;&#9;&#9;&#9;&#9;&#9;c-10.3-4.6-20.8-8.6-22.8-5.1c-1.9,3.5,8.8,8.7,17.5,11.6c-9.7,0-17.8-0.1-17.8,2.9c0,3,14,4.9,20.4,5.7&#10;&#9;&#9;&#9;&#9;&#9;c7.5,6.4,13.2,3.2,18.5,9.4L971.3,238.9z" style="fill: rgb(255, 225, 194);"/>
				<path d="M 1048.800049 281.200012 A 13 13 0 0 1 1035.800049 294.200012 A 13 13 0 0 1 1022.800049 281.200012 A 13 13 0 0 1 1035.800049 268.200012 A 13 13 0 0 1 1048.800049 281.200012 Z" class="st3" style="fill: rgb(231, 205, 177);"/>
				<path class="st17" d="M1100.8,234.7c0,0-19.7,25.2-35.9,33.9c-6.6,3.6-12.6,5.5-17.5,6.6c0.9,1.8,1.5,3.8,1.5,6&#10;&#9;&#9;&#9;&#9;&#9;c0,7.2-5.8,13-13,13c-7.2,0-13-5.8-13-13c0-2.2,0.5-4.2,1.5-6c-4.9-1.1-10.9-3-17.5-6.6c-16.2-8.7-35.9-33.9-35.9-33.9&#10;&#9;&#9;&#9;&#9;&#9;l-11.9,9.7c0,0,13.5,29.7,41.3,44.6c1.8,8.3,7.2,16,15.9,17.9c9.6,2,14.9-2.6,19.6-2.6s10,4.6,19.6,2.6&#10;&#9;&#9;&#9;&#9;&#9;c8.7-1.8,14.2-9.6,15.9-17.9c27.8-14.9,41.3-44.6,41.3-44.6L1100.8,234.7z" style="fill: rgb(146, 39, 143);"/>
				<path class="st18" d="M1035.8,265.2c-8.8,0-16,7.2-16,16c0,8.8,7.2,16,16,16s16-7.2,16-16&#10;&#9;&#9;&#9;&#9;&#9;C1051.9,272.4,1044.7,265.2,1035.8,265.2z M1035.8,294.2c-7.2,0-13-5.8-13-13c0-7.2,5.8-13,13-13c7.2,0,13,5.8,13,13&#10;&#9;&#9;&#9;&#9;&#9;C1048.9,288.4,1043,294.2,1035.8,294.2z" style="fill: rgb(93, 30, 121);"/>
			</g>
			<g>
				<g>
					<g>
						<g>
							<g>
								<g>
									<path class="st1" d="M1035.8,204c-31-11.9-34.8,7.3-48.1,23.6c0.7,16.2,2.4,33.8,6.7,40.3c6.8,10.3,23.4,19.9,41.3,19.9&#10;&#9;&#9;&#9;&#9;&#9;&#9;&#9;&#9;&#9;&#9;c17.9,0,34.5-9.7,41.3-19.9c3.2-4.8,5-15.7,6-27.7C1081.6,204,1043.1,219.1,1035.8,204z" style="fill: rgb(255, 225, 194);"/>
									<g>
										<g>
											<path class="st6" d="M1015.9,242.4c0-4.1-3.3-7.4-7.4-7.4c-4.1,0-7.4,3.3-7.4,7.4s3.3,7.4,7.4,7.4&#10;&#9;&#9;&#9;&#9;&#9;&#9;&#9;&#9;&#9;&#9;&#9;&#9;C1012.6,249.8,1015.9,246.5,1015.9,242.4z" style="fill: rgb(88, 89, 91);"/>
											<path class="st6" d="M1070.6,242.4c0-4.1-3.3-7.4-7.4-7.4c-4.1,0-7.4,3.3-7.4,7.4s3.3,7.4,7.4,7.4&#10;&#9;&#9;&#9;&#9;&#9;&#9;&#9;&#9;&#9;&#9;&#9;&#9;C1067.3,249.8,1070.6,246.5,1070.6,242.4z" style="fill: rgb(88, 89, 91);"/>
										</g>
										<path class="st0" d="M1035.8,276.5c-16.1,0-22.3-8.5-22.3-12.8c0-1.2,1-2.1,2.1-2.1h40.4c1.2,0,2.1,1,2.1,2.1&#10;&#9;&#9;&#9;&#9;&#9;&#9;&#9;&#9;&#9;&#9;&#9;C1058.2,268,1051.9,276.5,1035.8,276.5z" style="fill: rgb(255, 255, 255);"/>
									</g>
								</g>
							</g>
						</g>
					</g>
				</g>
				<path class="st16" d="M985.8,240.9c9.3,0,21.2-30,41.3-29c-4.8,19.7,4.3,27.5,9.9,31.3c-4.7-8.4-7.4-19-3.7-27.3&#10;&#9;&#9;&#9;&#9;&#9;c3.5,14.9,45.6,6.5,53.2,26.4c6.9-36.3-10.2-56.7-52.9-56.7C995.3,185.5,978.3,211.9,985.8,240.9z" style="fill: rgb(241, 91, 64);"/>
			</g>
		</g>
		<g>
			<g>
				<path class="st1" d="M1006.2,516.7c0,0,3.6-3.9,3.6-8.2c0-5.9-5.3-21-5.3-21s4.1-3.7,7.6-0.2c3.1,3.1,4.3,9.5,4.3,9.5&#10;&#9;&#9;&#9;&#9;&#9;c0-9.8-0.2-24.1,4.9-24.1c5.1,0,3.4,22,3.4,22c7.4-9.5,15-19.4,18.5-16.8c3.6,2.6-5.1,13.5-11.6,21.2&#10;&#9;&#9;&#9;&#9;&#9;c10.3-4.6,20.8-8.6,22.8-5.1s-8.8,8.7-17.5,11.6c9.7,0,17.8-0.1,17.8,2.9c0,3-14,4.9-20.4,5.7c-7.5,6.4-13.2,3.2-18.5,9.4&#10;&#9;&#9;&#9;&#9;&#9;L1006.2,516.7z" style="fill: rgb(255, 225, 194);"/>
				<path class="st1" d="M877.1,516.7c0,0-3.6-3.9-3.6-8.2c0-5.9,5.3-21,5.3-21s-4.1-3.7-7.6-0.2c-3.1,3.1-4.3,9.5-4.3,9.5&#10;&#9;&#9;&#9;&#9;&#9;c0-9.8,0.2-24.1-4.9-24.1c-5.1,0-3.4,22-3.4,22c-7.4-9.5-15-19.4-18.5-16.8c-3.6,2.6,5.1,13.5,11.6,21.2&#10;&#9;&#9;&#9;&#9;&#9;c-10.3-4.6-20.8-8.6-22.8-5.1c-1.9,3.5,8.8,8.7,17.5,11.6c-9.7,0-17.8-0.1-17.8,2.9c0,3,14,4.9,20.4,5.7&#10;&#9;&#9;&#9;&#9;&#9;c7.5,6.4,13.2,3.2,18.5,9.4L877.1,516.7z" style="fill: rgb(255, 225, 194);"/>
				<path class="st19" d="M941.7,554.3c0,0-12.9,1-29.1-7.8c-16.2-8.7-35.9-33.9-35.9-33.9l-11.9,9.7c0,0,13.5,29.7,41.3,44.6&#10;&#9;&#9;&#9;&#9;&#9;c2.9,13.6,16.2,17.8,35.5,17.8c19.4,0,32.6-4.2,35.5-17.8c27.8-14.9,41.3-44.6,41.3-44.6l-11.9-9.7c0,0-19.7,25.2-35.9,33.9&#10;&#9;&#9;&#9;&#9;&#9;S941.7,554.3,941.7,554.3z" style="fill: rgb(0, 143, 213);"/>
				<path d="M 954.700012 559.099976 A 13 13 0 0 1 941.700012 572.099976 A 13 13 0 0 1 928.700012 559.099976 A 13 13 0 0 1 941.700012 546.099976 A 13 13 0 0 1 954.700012 559.099976 Z" class="st3" style="fill: rgb(231, 205, 177);"/>
				<path d="M 941.7000122070312 576.9000244140625 L 925.2999877929688 572.7999877929688 L 931.7999877929688 569.9000244140625 L 916.7999877929688 566.0999755859375 L 929.5999755859375 554.4000244140625 L 941.7000122070312 569.9000244140625 L 953.7000122070312 554.4000244140625 L 966.5 566.0999755859375 L 951.5 569.9000244140625 L 958 572.7999877929688 Z" class="st20" style="fill: rgb(0, 85, 143);"/>
			</g>
			<g>
				<g>
					<path class="st1" d="M941.7,455.9c-29.6,0-48.5,15.3-48.5,33.6c0,15.6,0.1,45.5,7.2,56.2c6.8,10.3,23.4,19.9,41.3,19.9&#10;&#9;&#9;&#9;&#9;&#9;&#9;c17.9,0,34.5-9.7,41.3-19.9c7.1-10.7,7.2-40.7,7.2-56.2C990.2,471.2,971.3,455.9,941.7,455.9z" style="fill: rgb(255, 225, 194);"/>
					<path class="st21" d="M941.7,455.9c-29.6,0-48.5,15.3-48.5,33.6c0,6.6,0,15.8,0.6,25c6.8-1.2,11.6-5.2,11.6-14&#10;&#9;&#9;&#9;&#9;&#9;&#9;c0-10.7,0.4-22.6,10.5-25.3c10.1-2.6,10.1,5.6,25.8,5.6c15.7,0,15.7-8.2,25.8-5.6c10.1,2.6,10.5,14.6,10.5,25.3&#10;&#9;&#9;&#9;&#9;&#9;&#9;c0,8.8,4.9,12.9,11.6,14c0.6-9.2,0.6-18.4,0.6-25C990.2,471.2,971.3,455.9,941.7,455.9z" style="fill: rgb(241, 214, 184);"/>
					<g>
						<path d="M 899.400012 494.799988 A 1.7 1.7 0 0 1 897.700012 496.499988 A 1.7 1.7 0 0 1 896.000012 494.799988 A 1.7 1.7 0 0 1 897.700012 493.099988 A 1.7 1.7 0 0 1 899.400012 494.799988 Z" class="st22" style="fill: rgb(220, 196, 170);"/>
						<path d="M 903.499988 490.200012 A 1.7 1.7 0 0 1 901.799988 491.900012 A 1.7 1.7 0 0 1 900.099988 490.200012 A 1.7 1.7 0 0 1 901.799988 488.500012 A 1.7 1.7 0 0 1 903.499988 490.200012 Z" class="st22" style="fill: rgb(220, 196, 170);"/>
						<path d="M 958.7 461.799988 A 1.7 1.7 0 0 1 957 463.499988 A 1.7 1.7 0 0 1 955.3 461.799988 A 1.7 1.7 0 0 1 957 460.099988 A 1.7 1.7 0 0 1 958.7 461.799988 Z" class="st22" style="fill: rgb(220, 196, 170);"/>
						<path d="M 962.900012 465.200012 A 1.7 1.7 0 0 1 961.200012 466.900012 A 1.7 1.7 0 0 1 959.500012 465.200012 A 1.7 1.7 0 0 1 961.200012 463.500012 A 1.7 1.7 0 0 1 962.900012 465.200012 Z" class="st22" style="fill: rgb(220, 196, 170);"/>
					</g>
				</g>
				<g>
					<g>
						<path class="st6" d="M921.8,520.3c0-4.1-3.3-7.4-7.4-7.4c-4.1,0-7.4,3.3-7.4,7.4s3.3,7.4,7.4,7.4&#10;&#9;&#9;&#9;&#9;&#9;&#9;&#9;C918.4,527.7,921.8,524.4,921.8,520.3z" style="fill: rgb(88, 89, 91);"/>
						<path class="st6" d="M976.4,520.3c0-4.1-3.3-7.4-7.4-7.4c-4.1,0-7.4,3.3-7.4,7.4s3.3,7.4,7.4,7.4&#10;&#9;&#9;&#9;&#9;&#9;&#9;&#9;C973.1,527.7,976.4,524.4,976.4,520.3z" style="fill: rgb(88, 89, 91);"/>
					</g>
					<path class="st0" d="M941.7,554.4c-16.1,0-22.3-8.5-22.3-12.8c0-1.2,1-2.1,2.1-2.1h40.4c1.2,0,2.1,1,2.1,2.1&#10;&#9;&#9;&#9;&#9;&#9;&#9;C964,545.9,957.8,554.4,941.7,554.4z" style="fill: rgb(255, 255, 255);"/>
				</g>
			</g>
		</g>
		<g>
			<g>
				<path class="st1" d="M1266.3,512.7c0,0,5.4-0.2,8.4-3.2c4.2-4.2,11.1-18.6,11.1-18.6s5.5,0.3,5.5,5.2c0,4.4-3.7,9.7-3.7,9.7&#10;&#9;&#9;&#9;&#9;&#9;c6.9-6.9,16.9-17.2,20.5-13.6c3.6,3.6-13.1,17.9-13.1,17.9c12-1.5,24.3-3.1,25,1.2c0.7,4.4-13.2,5.9-23.2,6.8&#10;&#9;&#9;&#9;&#9;&#9;c10.5,4,20.8,8.6,19.7,12.5c-1.1,3.8-12.4-0.1-20.6-4.2c6.9,6.9,12.6,12.5,10.5,14.6c-2.1,2.1-13.4-6.4-18.5-10.4&#10;&#9;&#9;&#9;&#9;&#9;c-9.8-0.8-11.6-7-19.7-6.5L1266.3,512.7z" style="fill: rgb(255, 225, 194);"/>
				<path class="st1" d="M1175,421.4c0,0,0.2-5.4,3.2-8.4c4.2-4.2,18.6-11.1,18.6-11.1s-0.3-5.5-5.2-5.5c-4.4,0-9.7,3.7-9.7,3.7&#10;&#9;&#9;&#9;&#9;&#9;c6.9-6.9,17.2-16.9,13.6-20.5c-3.6-3.6-17.9,13.1-17.9,13.1c1.5-12,3.1-24.3-1.2-25c-4.4-0.7-5.9,13.2-6.8,23.2&#10;&#9;&#9;&#9;&#9;&#9;c-4-10.5-8.6-20.8-12.5-19.7c-3.8,1.1,0.1,12.4,4.2,20.6c-6.9-6.9-12.5-12.6-14.6-10.5c-2.1,2.1,6.4,13.4,10.4,18.5&#10;&#9;&#9;&#9;&#9;&#9;c0.8,9.8,7,11.6,6.5,19.7L1175,421.4z" style="fill: rgb(255, 225, 194);"/>
				<path class="st8" d="M1194.1,493.6c0,0-9.8-8.5-15.1-26c-5.3-17.6-1.4-49.3-1.4-49.3l-15.3-1.6c0,0-11.4,30.6-2.3,60.7&#10;&#9;&#9;&#9;&#9;&#9;c-7.5,11.6-1.1,24,12.6,37.7c13.7,13.7,26,20.1,37.7,12.6c30.1,9.1,60.7-2.3,60.7-2.3l-1.6-15.3c0,0-31.7,3.9-49.3-1.4&#10;&#9;&#9;&#9;&#9;&#9;C1202.6,503.4,1194.1,493.6,1194.1,493.6z" style="fill: rgb(151, 115, 72);"/>
				<path class="st3" d="M1199.2,506.9c-5.1,5.1-13.9,5.6-19,0.5c-5.1-5.1-4.6-13.9,0.5-19c5.1-5.1,13.4-5.1,18.4,0&#10;&#9;&#9;&#9;&#9;&#9;S1204.3,501.8,1199.2,506.9z" style="fill: rgb(231, 205, 177);"/>
				<path d="M 1180.300048828125 507.3999938964844 L 1185.5 485.1000061035156 L 1169.699951171875 481.5 L 1175.699951171875 499.79998779296875 L 1170.9000244140625 502.29998779296875 L 1180.0999755859375 507.6000061035156 L 1185.4000244140625 516.7999877929688 L 1187.9000244140625 512 L 1206.199951171875 518 L 1202.5999755859375 502.20001220703125 Z" class="st23" style="fill: rgb(186, 151, 101);"/>
			</g>
			<g>
				<path d="M1200.1,489.5c31.4,31.4,58.2,33,91.6-0.4c31-31,6.5-82.5-36.2-93.5c-18.4-20.1-40.6-12-55,2.3&#10;&#9;&#9;&#9;&#9;&#9;C1167.1,431.4,1168.7,458.2,1200.1,489.5z"/>
				<path class="st1" d="M1245.2,462.2c-13-9.1-19.2-23.4-17.3-32.9c-16-14.7-31.9-3.6-41,6.6c-7.6,9-13.8,17.7-14.9,23.3&#10;&#9;&#9;&#9;&#9;&#9;c-2.5,12,2.5,30.7,15.1,43.3c12.7,12.7,31.3,17.6,43.3,15.1c6.5-1.3,17.4-9.7,27.9-18.9C1266.3,482.6,1260.4,472.9,1245.2,462.2&#10;&#9;&#9;&#9;&#9;&#9;z" style="fill: rgb(255, 225, 194);"/>
				<g>
					<g>
						<path class="st6" d="M1205.1,456.4c2.9-2.9,2.9-7.6,0-10.5c-2.9-2.9-7.6-2.9-10.5,0c-2.9,2.9-2.9,7.6,0,10.5&#10;&#9;&#9;&#9;&#9;&#9;&#9;&#9;C1197.5,459.3,1202.2,459.3,1205.1,456.4z" style="fill: rgb(88, 89, 91);"/>
						<path class="st6" d="M1243.7,495.1c2.9-2.9,2.9-7.6,0-10.5c-2.9-2.9-7.6-2.9-10.5,0c-2.9,2.9-2.9,7.6,0,10.5&#10;&#9;&#9;&#9;&#9;&#9;&#9;&#9;C1236.1,498,1240.8,498,1243.7,495.1z" style="fill: rgb(88, 89, 91);"/>
					</g>
					<path class="st0" d="M1195,494.7c-11.4-11.4-9.8-21.8-6.7-24.9c0.8-0.8,2.2-0.8,3,0l28.6,28.6c0.8,0.8,0.8,2.2,0,3&#10;&#9;&#9;&#9;&#9;&#9;&#9;C1216.8,504.4,1206.4,506.1,1195,494.7z" style="fill: rgb(255, 255, 255);"/>
				</g>
			</g>
		</g>
		<g>
			<g>
				<path class="st1" d="M1274.7,346.9c0,0,5.4-0.2,8.4-3.2c4.2-4.2,11.1-18.6,11.1-18.6s5.5,0.3,5.5,5.2c0,4.4-3.7,9.7-3.7,9.7&#10;&#9;&#9;&#9;&#9;&#9;c6.9-6.9,16.9-17.2,20.5-13.6c3.6,3.6-13.1,17.9-13.1,17.9c12-1.5,24.3-3.1,25,1.2c0.7,4.4-13.2,5.9-23.2,6.8&#10;&#9;&#9;&#9;&#9;&#9;c10.5,4,20.8,8.6,19.7,12.5c-1.1,3.8-12.4-0.1-20.6-4.2c6.9,6.9,12.6,12.5,10.5,14.6s-13.4-6.4-18.5-10.4&#10;&#9;&#9;&#9;&#9;&#9;c-9.8-0.8-11.6-7-19.7-6.5L1274.7,346.9z" style="fill: rgb(255, 225, 194);"/>
				<path class="st1" d="M1183.4,255.6c0,0,0.2-5.4,3.2-8.4c4.2-4.2,18.6-11.1,18.6-11.1s-0.3-5.5-5.2-5.5c-4.4,0-9.7,3.7-9.7,3.7&#10;&#9;&#9;&#9;&#9;&#9;c6.9-6.9,17.2-16.9,13.6-20.5c-3.6-3.6-17.9,13.1-17.9,13.1c1.5-12,3.1-24.3-1.2-25c-4.4-0.7-5.9,13.2-6.8,23.2&#10;&#9;&#9;&#9;&#9;&#9;c-4-10.5-8.6-20.8-12.5-19.7c-3.8,1.1,0.1,12.4,4.2,20.6c-6.9-6.9-12.5-12.6-14.6-10.5c-2.1,2.1,6.4,13.4,10.4,18.5&#10;&#9;&#9;&#9;&#9;&#9;c0.8,9.8,7,11.6,6.5,19.7L1183.4,255.6z" style="fill: rgb(255, 225, 194);"/>
				<path class="st24" d="M1202.5,327.8c0,0-9.8-8.5-15.1-26c-5.3-17.6-1.4-49.3-1.4-49.3l-15.3-1.6c0,0-11.4,30.6-2.3,60.7&#10;&#9;&#9;&#9;&#9;&#9;c-7.5,11.6-1.1,24,12.6,37.7c13.7,13.7,26,20.1,37.7,12.6c30.1,9.1,60.7-2.3,60.7-2.3l-1.6-15.3c0,0-31.7,3.9-49.3-1.4&#10;&#9;&#9;&#9;&#9;&#9;C1210.9,337.6,1202.5,327.8,1202.5,327.8z" style="fill: rgb(3, 191, 215);"/>
				<g>
					<path class="st25" d="M1272.6,341.8c-18,15.2-39.8,19.6-71.6-12.3c-31.9-31.9-27.2-53.4-12.3-71.6c19.6-24,52.6-38.5,84.8-0.9&#10;&#9;&#9;&#9;&#9;&#9;&#9;C1309.1,279.7,1298.2,320.2,1272.6,341.8z" style="fill: rgb(72, 51, 27);"/>
					<g>
						<g>
							<path class="st1" d="M1277.5,279.6c-13-9.1-43.3-6.7-41.4-16.2c-16-14.7-31.9-3.6-41,6.6c-7.6,9-13.8,17.7-14.9,23.3&#10;&#9;&#9;&#9;&#9;&#9;&#9;&#9;&#9;c-2.5,12,2.5,30.7,15.1,43.3c12.7,12.7,31.3,17.6,43.3,15.1c6.5-1.3,17.4-9.7,27.9-18.9&#10;&#9;&#9;&#9;&#9;&#9;&#9;&#9;&#9;C1274.5,316.7,1292.8,290.3,1277.5,279.6z" style="fill: rgb(255, 225, 194);"/>
							<g>
								<g>
									<path class="st6" d="M1213.3,290.5c2.9-2.9,2.9-7.6,0-10.5c-2.9-2.9-7.6-2.9-10.5,0c-2.9,2.9-2.9,7.6,0,10.5&#10;&#9;&#9;&#9;&#9;&#9;&#9;&#9;&#9;&#9;&#9;C1205.7,293.4,1210.4,293.4,1213.3,290.5z" style="fill: rgb(88, 89, 91);"/>
									<path class="st6" d="M1252,329.2c2.9-2.9,2.9-7.6,0-10.5c-2.9-2.9-7.6-2.9-10.5,0c-2.9,2.9-2.9,7.6,0,10.5&#10;&#9;&#9;&#9;&#9;&#9;&#9;&#9;&#9;&#9;&#9;C1244.4,332.1,1249.1,332.1,1252,329.2z" style="fill: rgb(88, 89, 91);"/>
								</g>
								<path class="st0" d="M1203.3,328.8c-11.4-11.4-9.8-21.8-6.7-24.9c0.8-0.8,2.2-0.8,3,0l28.6,28.6c0.8,0.8,0.8,2.2,0,3&#10;&#9;&#9;&#9;&#9;&#9;&#9;&#9;&#9;&#9;C1225.1,338.6,1214.7,340.2,1203.3,328.8z" style="fill: rgb(255, 255, 255);"/>
							</g>
						</g>
					</g>
				</g>
			</g>
			<path class="st25" d="M1273.3,259.1c-34.4-34.4-70.4-3.5-83.9,17.4c10.8-5.6,20.9-6.7,30.6-5.5c-4.6,5-7.4,11.7-7.9,16.7&#10;&#9;&#9;&#9;&#9;c16.8-12.1,30.4-9.8,35.6-8.5c0.7,0.3,1.4,0.5,2.1,0.8c-6.8,5.9-10,14.3-10.8,19.6c8.5-7.1,27.8-5.1,30.5-5.3&#10;&#9;&#9;&#9;&#9;c-5.4,5.3-10.6,19.4-16.6,21.5c2.9,1.4,5.8,1.6,8.7,1c-1.7,9,1,15.3-3.5,23.7C1274.6,331.6,1307.6,293.5,1273.3,259.1z" style="fill: rgb(72, 51, 27);"/>
		</g>
		<g>
			<g>
				<path class="st1" d="M1215.1,675.9c0,0,0.2,5.4,3.2,8.4c4.2,4.2,18.6,11.1,18.6,11.1s-0.3,5.5-5.2,5.5c-4.4,0-9.7-3.7-9.7-3.7&#10;&#9;&#9;&#9;&#9;&#9;c6.9,6.9,17.2,16.9,13.6,20.5c-3.6,3.6-17.9-13.1-17.9-13.1c1.5,12,3.1,24.3-1.2,25c-4.4,0.7-5.9-13.2-6.8-23.2&#10;&#9;&#9;&#9;&#9;&#9;c-4,10.5-8.6,20.8-12.5,19.7c-3.8-1.1,0.1-12.4,4.2-20.6c-6.9,6.9-12.5,12.6-14.6,10.5c-2.1-2.1,6.4-13.4,10.4-18.5&#10;&#9;&#9;&#9;&#9;&#9;c0.8-9.8,7-11.6,6.5-19.7L1215.1,675.9z" style="fill: rgb(255, 225, 194);"/>
				<path class="st1" d="M1306.4,584.6c0,0,5.4,0.2,8.4,3.2c4.2,4.2,11.1,18.6,11.1,18.6s5.5-0.3,5.5-5.2c0-4.4-3.7-9.7-3.7-9.7&#10;&#9;&#9;&#9;&#9;&#9;c6.9,6.9,16.9,17.2,20.5,13.6c3.6-3.6-13.1-17.9-13.1-17.9c12,1.5,24.3,3.1,25-1.2c0.7-4.4-13.2-5.9-23.2-6.8&#10;&#9;&#9;&#9;&#9;&#9;c10.5-4,20.8-8.6,19.7-12.5c-1.1-3.8-12.4,0.1-20.6,4.2c6.9-6.9,12.6-12.5,10.5-14.6c-2.1-2.1-13.4,6.4-18.5,10.4&#10;&#9;&#9;&#9;&#9;&#9;c-9.8,0.8-11.6,7-19.7,6.5L1306.4,584.6z" style="fill: rgb(255, 225, 194);"/>
				<path class="st26" d="M1234.2,603.7c0,0,8.5-9.8,26-15.1c17.6-5.3,49.3-1.4,49.3-1.4l1.6-15.3c0,0-30.6-11.4-60.7-2.3&#10;&#9;&#9;&#9;&#9;&#9;c-11.6-7.5-24-1.1-37.7,12.6c-13.7,13.7-20.1,26-12.6,37.7c-9.1,30.2,2.3,60.7,2.3,60.7l15.3-1.6c0,0-3.9-31.7,1.4-49.3&#10;&#9;&#9;&#9;&#9;&#9;C1224.3,612.2,1234.2,603.7,1234.2,603.7z" style="fill: rgb(109, 110, 113);"/>
				<path class="st3" d="M1220.8,608.8c-5.1-5.1-5.6-13.9-0.5-19c5.1-5.1,13.9-4.6,19,0.5c5.1,5.1,5.1,13.4,0,18.4&#10;&#9;&#9;&#9;&#9;&#9;C1234.2,613.9,1225.9,613.9,1220.8,608.8z" style="fill: rgb(231, 205, 177);"/>
				<path d="M 1220.300048828125 589.9000244140625 L 1242.5999755859375 595.0999755859375 L 1246.300048828125 579.2999877929688 L 1228 585.2999877929688 L 1225.4000244140625 580.5 L 1220.199951171875 589.7000122070312 L 1210.9000244140625 595 L 1215.800048828125 597.5 L 1209.699951171875 615.7999877929688 L 1225.5999755859375 612.2000122070312 Z" class="st27" style="fill: rgb(147, 149, 152);"/>
				<g>
					<path class="st16" d="M1220.2,673.8c-15.2-18-19.5-39.8,12.3-71.6c31.9-31.9,53.4-27.2,71.6-12.3c24,19.6,38.5,52.6,0.9,84.8&#10;&#9;&#9;&#9;&#9;&#9;&#9;C1282.2,710.3,1241.8,699.4,1220.2,673.8z" style="fill: rgb(241, 91, 64);"/>
					<g>
						<g>
							<path class="st1" d="M1281.5,660.4c9.1-13,7.6-24.9,17.1-23c14.7-16,3.6-31.9-6.6-41c-9-7.6-17.7-13.8-23.3-14.9&#10;&#9;&#9;&#9;&#9;&#9;&#9;&#9;&#9;c-12-2.5-30.7,2.5-43.3,15.1c-12.7,12.7-17.6,31.3-15.1,43.3c1.3,6.5,9.7,17.4,18.9,27.9&#10;&#9;&#9;&#9;&#9;&#9;&#9;&#9;&#9;C1245.3,675.8,1270.8,675.6,1281.5,660.4z" style="fill: rgb(255, 225, 194);"/>
							<g>
								<g>
									<path class="st6" d="M1271.4,614.6c2.9,2.9,7.6,2.9,10.5,0c2.9-2.9,2.9-7.6,0-10.5c-2.9-2.9-7.6-2.9-10.5,0&#10;&#9;&#9;&#9;&#9;&#9;&#9;&#9;&#9;&#9;&#9;C1268.5,607,1268.5,611.7,1271.4,614.6z" style="fill: rgb(88, 89, 91);"/>
									<path class="st6" d="M1232.8,653.2c2.9,2.9,7.6,2.9,10.5,0s2.9-7.6,0-10.5c-2.9-2.9-7.6-2.9-10.5,0&#10;&#9;&#9;&#9;&#9;&#9;&#9;&#9;&#9;&#9;&#9;S1229.9,650.3,1232.8,653.2z" style="fill: rgb(88, 89, 91);"/>
								</g>
								<path class="st0" d="M1233.2,604.5c11.4-11.4,21.8-9.8,24.9-6.7c0.8,0.8,0.8,2.2,0,3l-28.6,28.6c-0.8,0.8-2.2,0.8-3,0&#10;&#9;&#9;&#9;&#9;&#9;&#9;&#9;&#9;&#9;C1223.4,626.3,1221.8,615.9,1233.2,604.5z" style="fill: rgb(255, 255, 255);"/>
							</g>
						</g>
					</g>
				</g>
			</g>
			<path class="st16" d="M1290,592.9c9.5,12.9-22.7,45.1-7.3,60.5c-15.4-15.4-47.6,16.8-60.5,7.3c0,0,26.6,42,68.2,0.4&#10;&#9;&#9;&#9;&#9;C1331.7,619.7,1290,592.9,1290,592.9z" style="fill: rgb(241, 91, 64);"/>
		</g>
	</g>
</svg>