<?xml version="1.0" encoding="iso-8859-1"?>
<!-- Generator: Adobe Illustrator 19.0.0, SVG Export Plug-In . SVG Version: 6.00 Build 0)  -->
<svg version="1.1" id="Layer_1" xmlns="http://www.w3.org/2000/svg" xmlns:xlink="http://www.w3.org/1999/xlink" x="0px" y="0px"
	 viewBox="0 0 512.002 512.002" style="enable-background:new 0 0 512.002 512.002;" xml:space="preserve">
<circle style="fill:#E6E6E6;" cx="256" cy="256.001" r="256"/>
<path style="fill:#CCCCCC;" d="M511.81,246.626L395.159,129.975l-58.511,25.373l-217.007,10.329l-10.426,142.934l11.926,10.952
	l-29.322,52.275l138.918,138.921c8.311,0.813,16.738,1.241,25.265,1.241c141.384,0,256-114.616,256-256
	c0-3.14-0.075-6.262-0.187-9.376L511.81,246.626z"/>
<path style="fill:#4D4D4D;" d="M120.467,155.348h237.885c7.596,0,13.81,6.215,13.81,13.81v131.476
	c0,7.596-6.215,13.814-13.81,13.814H120.467c-7.596,0-13.81-6.215-13.81-13.814V169.158
	C106.657,161.562,112.872,155.348,120.467,155.348z"/>
<path style="fill:#333333;" d="M368.105,159.405c2.507,2.504,4.061,5.956,4.061,9.757v131.476c0,7.596-6.215,13.814-13.81,13.814
	H120.47c-4.629,0-8.743-2.309-11.253-5.834l258.892-149.214L368.105,159.405L368.105,159.405z"/>
<path style="fill:#3A99D7;" d="M119.64,165.681h239.546V304.12H119.64V165.681L119.64,165.681z"/>
<path style="fill:#333333;" d="M105.552,319.563h133.285h1.151h133.281c3.46,0,23.736,29.779,27.154,33.893
	c2.143,2.583,0.827,4.489-2.593,4.478l-158.418-0.392l-158.421,0.392c-3.42,0.011-4.733-1.895-2.593-4.478
	C81.813,349.345,102.089,319.563,105.552,319.563z"/>
<path style="fill:#4D4D4D;" d="M105.549,319.563c-3.46,0-23.736,29.779-27.15,33.893c-2.143,2.583-0.828,4.489,2.593,4.478
	l158.418-0.392l158.418,0.392c2.359,0.007,3.715-0.9,3.632-2.305l-295.91-36.062L105.549,319.563L105.549,319.563z"/>
<path style="fill:#333333;" d="M91.818,371.841c-3.427-0.007-13.738-9.362-14.282-14.009l-0.234-1.963
	c106.844,0,217.316,0,324.161,0l-0.234,1.963c-0.543,4.632-9.761,14.002-13.188,14.009C289.07,372.15,190.789,372.15,91.818,371.841
	z"/>
<path style="fill:#EBECEC;" d="M213.795,342.685h14.106h26.603h14.102l4.442,11.386h-18.543h-26.603h-18.547L213.795,342.685z"/>
<path style="fill:#333333;" d="M166.891,314.449h17.436v5.118h-17.436V314.449z M294.5,314.449h17.44v5.118H294.5V314.449
	L294.5,314.449z"/>
<path style="fill:#006775;" d="M305.437,183.519h121.428c4.326,0,7.833,3.507,7.833,7.833v81.277c0,4.326-3.507,7.833-7.833,7.833
	H305.437c-4.326,0-7.833-3.507-7.833-7.833v-81.277C297.604,187.026,301.112,183.519,305.437,183.519z"/>
<path style="fill:#055661;" d="M432.461,185.885c1.381,1.414,2.233,3.345,2.233,5.466v81.277c0,4.309-3.524,7.833-7.833,7.833
	H305.437c-2.255,0-4.298-0.968-5.729-2.504L432.461,185.885z"/>
<rect x="308.69" y="191.351" style="fill:#F7F7F8;" width="114.94" height="73.09"/>
<circle style="fill:#FFD630;" cx="366.15" cy="272.191" r="5.204"/>
<path style="fill:#E84F4F;" d="M336.647,230.438c0,3.575,2.924,6.495,6.499,6.495h46.01c3.575,0,6.499-2.921,6.499-6.495
	c0-32.652,0-65.319,0-97.979c0-3.571-2.924-6.495-6.499-6.495h-46.01c-3.575,0-6.499,2.924-6.499,6.495
	C336.647,165.113,336.647,197.779,336.647,230.438z"/>
<path style="fill:#D14747;" d="M338.55,235.02c1.18,1.18,2.806,1.913,4.593,1.913h46.01c3.575,0,6.499-2.921,6.499-6.495
	c0-32.652,0-65.319,0-97.979c0-1.787-0.73-3.413-1.91-4.586l-55.196,107.15L338.55,235.02z"/>
<g>
	<path style="fill:#FFFFFF;" d="M360.118,222.263c0,5.686,1.184,5.758,6.948,5.758c3.043,0,4.812-0.661,5.028-3.665
		c0.187-2.558,0.435-6.316-1.277-7.56c-1.284-0.928-5.949-0.946-7.783-0.597C359.88,216.797,360.118,219.084,360.118,222.263z"/>
	<path style="fill:#FFFFFF;" d="M351.095,132.129c1.762,0,3.194,1.432,3.194,3.194s-1.428,3.194-3.194,3.194
		c-1.762,0-3.194-1.428-3.194-3.194C347.901,133.56,349.329,132.129,351.095,132.129z"/>
	<path style="fill:#FFFFFF;" d="M360.834,138.268h11.706c0.564,0,1.022,0.456,1.022,1.025l0,0c0,0.561-0.456,1.022-1.022,1.022
		h-11.706c-0.564,0-1.022-0.46-1.022-1.022l0,0C359.812,138.729,360.27,138.268,360.834,138.268z"/>
</g>
<path style="fill:#D14747;" d="M366.3,219.189h0.058c1.618,0,2.939,1.324,2.939,2.939l0,0c0,1.615-1.324,2.939-2.939,2.939H366.3
	c-1.615,0-2.939-1.324-2.939-2.939l0,0C363.362,220.508,364.685,219.189,366.3,219.189z"/>
<path style="fill:#F7F7F8;" d="M343.57,142.232h45.164v70.045H343.57V142.232z"/>
<g>
	<path style="fill:#FFD630;" d="M216.324,221.092v-13.756l-10.045-1.007c-0.682-2.543-1.69-4.953-2.974-7.182l6.391-7.812
		l-9.729-9.729l-7.812,6.395c-2.229-1.288-4.636-2.29-7.178-2.978h-0.004l-1.007-10.041H170.21l-1.007,10.041
		c-2.543,0.686-4.953,1.694-7.182,2.978l-7.812-6.391l-9.729,9.725l6.395,7.812c-1.288,2.23-2.29,4.64-2.978,7.182l-10.041,1.007
		v13.756l10.041,1.007c0.686,2.543,1.694,4.949,2.978,7.182l-6.391,7.812l9.725,9.729l7.812-6.391c2.23,1.284,4.64,2.29,7.182,2.974
		l1.007,10.045h13.756l1.007-10.045c2.543-0.682,4.949-1.69,7.182-2.974l7.812,6.391l9.729-9.729l-6.391-7.812
		c1.284-2.233,2.29-4.64,2.974-7.182L216.324,221.092z M177.094,230.129c-8.793,0-15.922-7.128-15.922-15.922
		c0-8.793,7.131-15.922,15.922-15.922c8.793,0,15.922,7.131,15.922,15.922C193.016,223.001,185.887,230.129,177.094,230.129z"/>
	<path style="fill:#FFD630;" d="M263.103,221.533v-8.401l-6.779-0.679c-0.262-0.813-0.585-1.601-0.971-2.352l4.313-5.272
		l-5.942-5.942l-5.272,4.313c-0.748-0.385-1.536-0.712-2.352-0.975l-0.676-6.776h-8.405l-0.676,6.776
		c-0.814,0.262-1.601,0.589-2.352,0.975l-5.272-4.313l-5.942,5.942l4.313,5.272c-0.385,0.752-0.712,1.54-0.975,2.352l-6.776,0.679
		v8.401l6.776,0.679c0.262,0.814,0.589,1.601,0.975,2.352l-4.316,5.272l5.945,5.942l5.272-4.313c0.752,0.385,1.54,0.712,2.352,0.975
		l0.676,6.776h8.405l0.676-6.776c0.817-0.262,1.604-0.589,2.352-0.975l5.272,4.313l5.942-5.942l-4.313-5.272
		c0.381-0.753,0.708-1.54,0.971-2.352L263.103,221.533z M241.222,225.691c-4.618,0-8.362-3.744-8.362-8.358
		c0.001-4.618,3.744-8.362,8.362-8.362s8.358,3.744,8.358,8.362S245.836,225.691,241.222,225.691z"/>
	<path style="fill:#FFD630;" d="M243.747,267.78v-9.326l-4.053-0.424c-0.353-1.201-0.831-2.355-1.414-3.438l2.687-3.089
		l-6.596-6.596l-3.161,2.568c-1.079-0.593-2.226-1.076-3.431-1.435v-0.001h0.007l-0.284-4.085h-9.326l-0.424,4.049
		c-1.205,0.349-2.356,0.828-3.442,1.414l-3.089-2.687l-6.596,6.592l2.568,3.165c-0.593,1.079-1.076,2.226-1.435,3.431l-4.086,0.284
		v9.326l4.049,0.421c0.349,1.205,0.828,2.359,1.414,3.442l-2.687,3.089l6.592,6.592l3.165-2.568c1.079,0.593,2.226,1.08,3.431,1.439
		l0.284,4.086h9.326l0.421-4.049c1.205-0.349,2.356-0.827,3.442-1.414l3.089,2.687l6.592-6.592l-2.568-3.165
		c0.593-1.079,1.08-2.226,1.439-3.431L243.747,267.78z M222.704,269.726c-3.718,0-6.732-3.014-6.732-6.729
		c0-3.718,3.014-6.732,6.732-6.732s6.732,3.014,6.732,6.732C229.436,266.712,226.422,269.726,222.704,269.726z"/>
</g>
<g>
</g>
<g>
</g>
<g>
</g>
<g>
</g>
<g>
</g>
<g>
</g>
<g>
</g>
<g>
</g>
<g>
</g>
<g>
</g>
<g>
</g>
<g>
</g>
<g>
</g>
<g>
</g>
<g>
</g>
</svg>
