<?xml version="1.0" encoding="iso-8859-1"?>
<!-- Generator: Adobe Illustrator 19.0.0, SVG Export Plug-In . SVG Version: 6.00 Build 0)  -->
<svg version="1.1" id="Capa_1" xmlns="http://www.w3.org/2000/svg" xmlns:xlink="http://www.w3.org/1999/xlink" x="0px" y="0px"
	 viewBox="0 0 452.986 452.986" style="enable-background:new 0 0 452.986 452.986;" xml:space="preserve">
<g>
	<g>
		<rect x="80.028" y="125.369" style="fill:#010002;" width="292.91" height="30.523"/>
		<rect x="138.635" y="199.379" style="fill:#010002;" width="173.3" height="30.544"/>
		<rect x="80.028" y="272.655" style="fill:#010002;" width="124.485" height="30.501"/>
		<path style="fill:#010002;" d="M0,0v452.986h452.986V0H0z M400.246,24.699c8.089,0,14.582,6.536,14.625,14.625
			c0,8.111-6.536,14.668-14.625,14.668c-8.089,0-14.69-6.558-14.69-14.668C385.556,31.256,392.157,24.699,400.246,24.699z
			 M348.951,24.699c8.111,0,14.647,6.536,14.69,14.625c0,8.111-6.579,14.668-14.69,14.668c-8.067,0-14.625-6.558-14.625-14.668
			C334.326,31.256,340.883,24.699,348.951,24.699z M417.934,418.624H35.031V85.744h382.903V418.624z"/>
	</g>
	<g>
	</g>
	<g>
	</g>
	<g>
	</g>
	<g>
	</g>
	<g>
	</g>
	<g>
	</g>
	<g>
	</g>
	<g>
	</g>
	<g>
	</g>
	<g>
	</g>
	<g>
	</g>
	<g>
	</g>
	<g>
	</g>
	<g>
	</g>
	<g>
	</g>
</g>
<g>
</g>
<g>
</g>
<g>
</g>
<g>
</g>
<g>
</g>
<g>
</g>
<g>
</g>
<g>
</g>
<g>
</g>
<g>
</g>
<g>
</g>
<g>
</g>
<g>
</g>
<g>
</g>
<g>
</g>
</svg>
