<?xml version="1.0" encoding="UTF-8" standalone="no"?>
<!-- Created with Inkscape (http://www.inkscape.org/) -->

<svg
   xmlns:dc="http://purl.org/dc/elements/1.1/"
   xmlns:cc="http://creativecommons.org/ns#"
   xmlns:rdf="http://www.w3.org/1999/02/22-rdf-syntax-ns#"
   xmlns:svg="http://www.w3.org/2000/svg"
   xmlns="http://www.w3.org/2000/svg"
   xmlns:sodipodi="http://sodipodi.sourceforge.net/DTD/sodipodi-0.dtd"
   xmlns:inkscape="http://www.inkscape.org/namespaces/inkscape"
   width="700"
   height="300"
   viewBox="0 0 185.20864 79.374998"
   version="1.1"
   id="svg8"
   inkscape:version="0.92.1 r15371"
   sodipodi:docname="wdstudio_logo.svg"
   inkscape:export-filename="C:\Users\User\Desktop\wdstudio_logo-white.png"
   inkscape:export-xdpi="96"
   inkscape:export-ydpi="96">
  <defs
     id="defs2" />
  <sodipodi:namedview
     id="base"
     pagecolor="#000000"
     bordercolor="#666666"
     borderopacity="1.0"
     inkscape:pageopacity="0"
     inkscape:pageshadow="2"
     inkscape:zoom="0.98994949"
     inkscape:cx="288.38439"
     inkscape:cy="264.76258"
     inkscape:document-units="mm"
     inkscape:current-layer="layer1"
     showgrid="false"
     inkscape:window-width="1920"
     inkscape:window-height="1017"
     inkscape:window-x="1912"
     inkscape:window-y="-8"
     inkscape:window-maximized="1"
     units="px" />
  <metadata
     id="metadata5">
    <rdf:RDF>
      <cc:Work
         rdf:about="">
        <dc:format>image/svg+xml</dc:format>
        <dc:type
           rdf:resource="http://purl.org/dc/dcmitype/StillImage" />
        <dc:title></dc:title>
      </cc:Work>
    </rdf:RDF>
  </metadata>
  <g
     inkscape:groupmode="layer"
     id="layer2"
     inkscape:label="Layer 2"
     transform="translate(0,-26.458377)">
    <rect
       id="rect3687"
       width="23.920624"
       height="39.422256"
       x="44.320442"
       y="14.894862"
       style="fill:#008080;stroke-width:0.27579212"
       transform="rotate(19.835177)" />
  </g>
  <g
     inkscape:label="Layer 1"
     inkscape:groupmode="layer"
     id="layer1"
     transform="translate(0,-217.62506)">
    <rect
       style="fill:#917c6f;fill-opacity:1;stroke-width:0.22727792"
       id="rect3691"
       width="36.482288"
       height="21.9161"
       x="75.856476"
       y="245.66624"
       transform="rotate(-0.99162314)" />
    <g
       aria-label="WDS"
       style="font-style:normal;font-variant:normal;font-weight:normal;font-stretch:normal;font-size:10.58333302px;line-height:1.25;font-family:Impact;-inkscape-font-specification:Impact;letter-spacing:0px;word-spacing:0px;fill:#000000;fill-opacity:1;stroke:none;stroke-width:0.26458332"
       id="text3682">
      <path
         d="m 43.295776,251.19261 q -0.1016,0.3048 -0.3048,0.3048 -0.1524,0 -0.254,-0.3556 l -4.2672,-21.9456 q -0.0508,-0.1524 -0.0508,-0.4064 0,-0.762 0.6096,-0.762 h 5.08 q 0.8128,0 0.9652,0.6604 l 2.1336,11.938 q 0.0508,0.1524 0.0508,0.508 0,0.9144 -0.254,1.524 -0.5588,1.27 -1.8288,4.1148 -1.2192,2.8448 -1.8796,4.4196 z m 2.6416,12.446 q -0.254,0 -0.4572,-0.1524 -0.1524,-0.2032 -0.1524,-0.508 0,-0.3048 0.1524,-0.6604 1.1176,-3.048 3.6068,-9.906 2.54,-6.9088 4.2672,-11.8364 0.1524,-0.4064 0.4064,-0.6604 0.254,-0.254 0.8128,-0.254 h 5.0292 q 1.0668,0 1.524,0.9144 3.4544,9.6012 3.81,10.7188 0.254,0.6604 0.3556,0.6604 0.1524,0 0.3048,-0.7112 0.6604,-4.064 1.8288,-11.5824 1.1684,-7.5692 1.6764,-10.922 0.1016,-0.4064 0.3048,-0.5588 0.254,-0.1524 0.6604,-0.1524 h 5.130799 q 0.3048,0 0.4572,0.3556 0.1524,0.3556 0.0508,0.8128 l -6.095999,33.782 q -0.1524,0.6604 -0.9144,0.6604 h -5.4864 q -0.4064,0 -0.6604,-0.1016 -0.2032,-0.1524 -0.3048,-0.5588 -0.7112,-2.0828 -2.3368,-6.858 -1.5748,-4.7752 -2.3876,-7.4168 -0.0508,-0.254 -0.2032,-0.254 -0.1016,0 -0.2032,0.254 l -4.7244,14.2748 q -0.1524,0.6604 -0.9652,0.6604 z"
         style="fill:#333333"
         id="path4585"
         inkscape:connector-curvature="0" />
      <path
         d="m 90.895377,263.53701 q -0.4572,0 -0.8128,-0.3048 -0.3048,-0.3048 -0.3048,-0.762 v -4.4196 q 0,-0.508 0.3048,-0.8128 0.3556,-0.3048 0.8128,-0.3048 h 4.1148 q 3.048,0 5.588003,-1.4732 2.54,-1.524 4.0132,-4.064 1.524,-2.54 1.524,-5.588 0,-3.048 -1.524,-5.588 -1.4732,-2.54 -4.0132,-4.0132 -2.540003,-1.524 -5.588003,-1.524 h -4.1148 q -0.254,0 -0.4572,0.2032 -0.1524,0.1524 -0.1524,0.4064 v 3.0988 q 0,0.4572 -0.3556,0.762 -0.3048,0.3048 -0.762,0.3048 h -4.4196 q -0.4064,0 -0.762,-0.3048 -0.3048,-0.3556 -0.3048,-0.762 v -9.1948 q 0,-0.4572 0.3048,-0.762 0.3556,-0.3556 0.762,-0.3556 h 10.2616 q 4.826,0 8.890003,2.3876 4.064,2.3876 6.4516,6.4516 2.3876,4.064 2.3876,8.89 0,4.826 -2.3876,8.89 -2.3876,4.064 -6.4516,6.4516 -4.064003,2.3876 -8.890003,2.3876 z"
         style="font-style:normal;font-variant:normal;font-weight:normal;font-stretch:normal;font-size:50.79999924px;font-family:LEIXO;-inkscape-font-specification:LEIXO;stroke-width:0.26458332"
         id="path4587"
         inkscape:connector-curvature="0" />
      <path
         d="m 137.08686,243.92821 q 3.6576,1.3208 5.5372,2.3368 1.8796,0.9652 2.9972,2.7432 1.1684,1.7272 1.1684,4.6736 0,2.8448 -1.5748,5.0292 -1.524,2.1844 -4.3688,3.4544 -2.8448,1.2192 -6.5532,1.2192 -0.8636,0 -2.0828,-0.2032 -0.508,-0.0508 -0.7112,-0.254 -0.2032,-0.254 -0.1016,-0.7112 l 0.2032,-1.4732 q 0.0508,-0.4064 0.1016,-0.9144 0.0508,-0.5588 0.1524,-1.016 0.1016,-0.8128 0.9652,-0.8128 l 2.1336,0.0508 q 2.54,0 4.1148,-1.1684 1.6256,-1.1684 1.6256,-2.8956 0,-1.27 -0.8636,-2.4892 -0.5588,-0.7112 -2.032,-1.3716 -1.4732,-0.6604 -4.0132,-1.4732 -3.8608,-1.3208 -6.2992,-2.4384 -2.3876,-1.1684 -3.556,-2.8448 -1.42239,-2.2352 -1.42239,-4.6228 0,-2.4892 1.42239,-4.7244 1.4732,-2.2352 4.064,-3.7084 2.5908,-1.524 5.9436,-1.8796 2.4384,-0.1016 4.7752,0.3048 2.3368,0.4064 4.064,1.2192 1.5748,0.8128 2.9464,1.9812 0.254,0.2032 0.4064,0.4572 0.1524,0.254 0.1016,0.3556 -0.254,0.5588 -1.7272,2.6416 l -0.6096,0.8636 q -0.1524,0.1524 -0.4572,0.1524 -0.254,0 -0.508,-0.1524 -2.0828,-1.1684 -3.6068,-1.5748 -1.778,-0.508 -3.556,-0.508 -2.0828,0 -3.9116,0.7112 -1.3716,0.6604 -2.1844,1.6256 -0.762,0.9144 -0.762,1.8796 0,1.524 1.778,2.6416 0.7112,0.4572 2.794,1.4224 2.1336,0.9652 3.6068,1.4732 z m 6.8072,-7.6708 q 0,-0.0508 0,-0.0508 0.0508,0 0.0508,0 z m -18.1356,20.1168 q 0.1524,0.1016 0.2032,0.254 0.1016,0.1524 0.0508,0.3556 l -1.2192,3.4036 q -0.1016,0.254 -0.3556,0.3556 -0.254,0.1016 -0.5588,-0.0508 -1.72719,-0.762 -2.33679,-1.27 -0.254,-0.254 -0.254,-0.4064 0,-0.3048 0.4572,-1.1176 0.4572,-0.8636 1.27,-2.2352 0.254,-0.3556 0.71119,-0.1016 z"
         style="fill:#333333"
         id="path4589"
         inkscape:connector-curvature="0" />
    </g>
    <g
       aria-label="web design studio"
       style="font-style:normal;font-variant:normal;font-weight:normal;font-stretch:normal;font-size:10.58333302px;line-height:1.25;font-family:Giro;-inkscape-font-specification:Giro;letter-spacing:0px;word-spacing:0px;fill:#1c1c24;fill-opacity:1;stroke:none;stroke-width:0.26458332"
       id="text4499">
      <path
         d="m 21.193279,273.85717 c 0,-0.4064 -0.2032,-0.6096 -0.587023,-0.6096 -0.4064,0 -0.6096,0.2032 -0.6096,0.6096 v 4.42524 c -0.2032,1.71591 -1.6256,2.93511 -3.341511,2.93511 -0.925689,0 -1.715911,-0.31609 -2.370666,-0.92569 -0.654756,-0.63218 -0.970845,-1.39982 -0.970845,-2.32551 v -4.10915 c 0,-0.4064 -0.2032,-0.6096 -0.6096,-0.6096 -0.4064,0 -0.6096,0.2032 -0.6096,0.6096 l 0.02258,4.10915 c 0,0.0226 0,0.0226 -0.02258,0.0226 0.02258,0 0.02258,0 0.02258,0.0226 v 0.27093 c -0.112889,0.83538 -0.496711,1.53529 -1.128889,2.09973 -0.632178,0.56445 -1.3772444,0.83538 -2.2126222,0.83538 -0.9256889,0 -1.7159111,-0.31609 -2.3706667,-0.94827 -0.6547555,-0.65475 -0.9934222,-1.4224 -0.9934222,-2.32551 v -4.10915 c 0,-0.38382 -0.2032,-0.58702 -0.6096,-0.58702 -0.3838222,0 -0.5870222,0.2032 -0.5870222,0.58702 v 4.13173 c 0,1.24178 0.4515555,2.30293 1.3320889,3.16089 0.8805333,0.85796 1.9642666,1.28693 3.2286222,1.28693 1.6256002,0 3.1383112,-0.83537 3.9285332,-2.25777 0.880533,1.51271 2.190045,2.25777 3.951111,2.25777 1.106311,0 2.122311,-0.4064 3.093156,-1.19662 0.970844,-0.8128 1.444978,-1.78364 1.444978,-2.88995 z"
         style="font-size:22.57777786px;fill:#1c1c24;stroke-width:0.26458332"
         id="path4592"
         inkscape:connector-curvature="0" />
      <path
         d="m 24.448712,275.50534 c -0.428978,0.72249 -0.654756,1.51271 -0.654756,2.37067 0,1.26436 0.451556,2.34809 1.332089,3.22862 0.903111,0.88054 1.986844,1.33209 3.228622,1.33209 0.857956,0 1.670756,-0.22578 2.415822,-0.69991 0.2032,-0.13547 0.316089,-0.29351 0.316089,-0.47413 0,-0.29351 -0.293511,-0.67734 -0.564444,-0.67734 -0.112889,0 -0.248356,0.0452 -0.383822,0.13547 -0.564445,0.33867 -1.151467,0.51929 -1.783645,0.51929 -1.377244,0 -2.370666,-0.6096 -2.980266,-1.8288 -0.135467,-0.27093 -0.248356,-0.58702 -0.316089,-0.92569 h 7.270044 c 0.383822,0 0.587022,-0.2032 0.587022,-0.6096 0,-2.00942 -1.241777,-3.74791 -3.160889,-4.35751 -0.428977,-0.13547 -0.903111,-0.2032 -1.399822,-0.2032 -1.715911,0 -3.025422,0.72249 -3.905955,2.19004 z m 2.370666,-0.63217 c 0.474134,-0.24836 0.970845,-0.36125 1.535289,-0.36125 0.338667,0 0.677334,0.0452 1.016,0.15805 1.309511,0.4064 2.077156,1.28693 2.302934,2.61902 h -6.615289 c 0.2032,-1.10631 0.790222,-1.91911 1.761066,-2.41582 z"
         style="font-size:22.57777786px;fill:#1c1c24;stroke-width:0.26458332"
         id="path4594"
         inkscape:connector-curvature="0" />
      <path
         d="m 40.084529,273.24757 c -0.654755,0 -1.309511,0.15804 -1.919111,0.47413 -0.654755,0.33867 -1.151466,0.76764 -1.444977,1.30951 v -6.45724 c 0,-0.4064 -0.2032,-0.6096 -0.587023,-0.6096 -0.4064,0 -0.6096,0.2032 -0.6096,0.6096 v 9.23431 c 0,1.26435 0.451556,2.34809 1.332089,3.22862 0.880534,0.88053 1.964267,1.33209 3.228622,1.33209 1.286934,0 2.348089,-0.42898 3.228623,-1.30951 0.880533,-0.88054 1.332089,-1.96427 1.332089,-3.2512 0,-1.26436 -0.451556,-2.34809 -1.332089,-3.22863 -0.880534,-0.88053 -1.964267,-1.33208 -3.228623,-1.33208 z m 0,7.9248 c -0.925688,0 -1.738488,-0.31609 -2.393244,-0.97085 -0.654756,-0.65475 -0.970844,-1.46755 -0.970844,-2.39324 0,-0.92569 0.316088,-1.71591 0.970844,-2.37067 0.654756,-0.65476 1.467556,-0.99342 2.393244,-0.99342 0.925689,0 1.715912,0.33866 2.370667,0.99342 0.654756,0.65476 0.993422,1.44498 0.993422,2.37067 0,0.92569 -0.338666,1.73849 -0.993422,2.39324 -0.654755,0.65476 -1.444978,0.97085 -2.370667,0.97085 z"
         style="font-size:22.57777786px;fill:#1c1c24;stroke-width:0.26458332"
         id="path4596"
         inkscape:connector-curvature="0" />
      <path
         d="m 62.019546,268.57397 c 0,-0.4064 -0.2032,-0.6096 -0.587022,-0.6096 -0.4064,0 -0.6096,0.2032 -0.6096,0.6096 v 6.16373 c -0.903111,-0.99342 -2.032,-1.49013 -3.364089,-1.49013 -1.264355,0 -2.348089,0.45155 -3.228622,1.33208 -0.880533,0.88054 -1.332089,1.96427 -1.332089,3.22863 0,1.26435 0.451556,2.34809 1.332089,3.22862 0.880533,0.88053 1.964267,1.33209 3.228622,1.33209 1.286933,0 2.348089,-0.42898 3.228622,-1.30951 0.880534,-0.88054 1.332089,-1.96427 1.332089,-3.2512 z m -4.560711,12.5984 c -0.925689,0 -1.738489,-0.31609 -2.393244,-0.97085 -0.654756,-0.65475 -0.970845,-1.46755 -0.970845,-2.39324 0,-0.92569 0.316089,-1.71591 0.970845,-2.37067 0.654755,-0.65476 1.467555,-0.99342 2.393244,-0.99342 0.925689,0 1.715911,0.33866 2.370667,0.99342 0.654755,0.65476 0.993422,1.44498 0.993422,2.37067 0,0.92569 -0.338667,1.73849 -0.993422,2.39324 -0.654756,0.65476 -1.444978,0.97085 -2.370667,0.97085 z"
         style="font-size:22.57777786px;fill:#1c1c24;stroke-width:0.26458332"
         id="path4598"
         inkscape:connector-curvature="0" />
      <path
         d="m 65.282738,275.50534 c -0.428978,0.72249 -0.654756,1.51271 -0.654756,2.37067 0,1.26436 0.451556,2.34809 1.332089,3.22862 0.903111,0.88054 1.986845,1.33209 3.228623,1.33209 0.857955,0 1.670755,-0.22578 2.415822,-0.69991 0.2032,-0.13547 0.316089,-0.29351 0.316089,-0.47413 0,-0.29351 -0.293511,-0.67734 -0.564445,-0.67734 -0.112889,0 -0.248355,0.0452 -0.383822,0.13547 -0.564444,0.33867 -1.151467,0.51929 -1.783644,0.51929 -1.377245,0 -2.370667,-0.6096 -2.980267,-1.8288 -0.135467,-0.27093 -0.248356,-0.58702 -0.316089,-0.92569 h 7.270044 c 0.383823,0 0.587023,-0.2032 0.587023,-0.6096 0,-2.00942 -1.241778,-3.74791 -3.160889,-4.35751 -0.428978,-0.13547 -0.903111,-0.2032 -1.399822,-0.2032 -1.715912,0 -3.025423,0.72249 -3.905956,2.19004 z m 2.370667,-0.63217 c 0.474133,-0.24836 0.970844,-0.36125 1.535289,-0.36125 0.338666,0 0.677333,0.0452 1.016,0.15805 1.309511,0.4064 2.077155,1.28693 2.302933,2.61902 h -6.615289 c 0.2032,-1.10631 0.790222,-1.91911 1.761067,-2.41582 z"
         style="font-size:22.57777786px;fill:#1c1c24;stroke-width:0.26458332"
         id="path4600"
         inkscape:connector-curvature="0" />
      <path
         d="m 79.654204,277.5825 v 0.58702 c 0,0.88053 -0.338667,1.6256 -1.016,2.19005 -0.677333,0.56444 -1.467556,0.83537 -2.370667,0.83537 -0.383822,0 -0.587022,0.2032 -0.587022,0.58703 0,0.4064 0.2032,0.6096 0.587022,0.6096 1.241778,0 2.325511,-0.38383 3.228623,-1.17405 0.903111,-0.79022 1.354666,-1.80622 1.354666,-3.048 v -0.58702 c 0,-0.88053 0.338667,-1.6256 0.993422,-2.21262 0.677334,-0.6096 1.467556,-0.90311 2.370667,-0.90311 0.4064,0 0.6096,-0.2032 0.6096,-0.58703 0,-0.4064 -0.2032,-0.6096 -0.6096,-0.6096 -1.241778,0 -2.302933,0.4064 -3.206044,1.24178 -0.903111,0.8128 -1.354667,1.8288 -1.354667,3.07058 z"
         style="font-size:22.57777786px;fill:#1c1c24;stroke-width:0.26458332"
         id="path4602"
         inkscape:connector-curvature="0" />
      <path
         d="m 90.689794,281.17237 c -0.970845,0 -1.761067,-0.31609 -2.415823,-0.97085 -0.632177,-0.65475 -0.948266,-1.44498 -0.948266,-2.39324 v -3.95111 c 0,-0.38383 -0.2032,-0.58703 -0.6096,-0.58703 -0.383822,0 -0.587022,0.2032 -0.587022,0.58703 v 3.8608 0.0226 0.0677 c 0,1.28693 0.428977,2.37066 1.309511,3.2512 0.880533,0.88053 1.964266,1.30951 3.2512,1.30951 0.383822,0 0.587022,-0.2032 0.587022,-0.58702 0,-0.4064 -0.2032,-0.6096 -0.587022,-0.6096 z M 85.971038,268.8449 v 0.0226 c 0,0.51929 0.248356,0.76764 0.745067,0.76764 0.496711,0 0.745066,-0.24835 0.745066,-0.76764 v -0.0226 c 0,-0.51929 -0.248355,-0.76765 -0.745066,-0.76765 -0.496711,0 -0.745067,0.24836 -0.745067,0.76765 z"
         style="font-size:22.57777786px;fill:#1c1c24;stroke-width:0.26458332"
         id="path4604"
         inkscape:connector-curvature="0" />
      <path
         d="m 100.84097,281.69165 c 1.44498,-0.90311 2.16747,-2.19004 2.16747,-3.88337 0,-1.26436 -0.45156,-2.34809 -1.35467,-3.22863 -0.88053,-0.88053 -1.964263,-1.33208 -3.228619,-1.33208 -1.264355,0 -2.348089,0.45155 -3.228622,1.33208 -0.880533,0.88054 -1.332089,1.96427 -1.332089,3.22863 0,1.26435 0.451556,2.34809 1.332089,3.22862 0.880533,0.88053 1.964267,1.33209 3.228622,1.33209 h 0.04516 c 0.180622,0 0.270933,0 0.270933,0 0.903111,-0.0226 1.670756,0.29351 2.302926,0.92569 0.65476,0.65475 0.97085,1.4224 0.97085,2.32551 0,0.90311 -0.31609,1.67075 -0.94827,2.28035 -0.6096,0.63218 -1.377239,0.97085 -2.28035,0.99343 -0.857956,0.0226 -1.6256,-0.27094 -2.280356,-0.85796 -0.654755,-0.56444 -0.993422,-1.28693 -1.016,-2.12231 0,-0.38382 -0.2032,-0.58702 -0.6096,-0.58702 -0.4064,0 -0.6096,0.2032 -0.6096,0.6096 0.02258,1.15146 0.474134,2.14489 1.399822,2.95769 0.925689,0.83537 1.986845,1.24177 3.138312,1.2192 1.219192,-0.0226 2.257772,-0.47414 3.115732,-1.35467 0.85795,-0.88053 1.28693,-1.91911 1.28693,-3.13831 0,-1.64818 -0.92569,-3.18347 -2.37067,-3.92854 z m -5.779908,-3.88337 c 0,-0.92569 0.338667,-1.71591 0.993423,-2.37067 0.654755,-0.65476 1.444977,-0.99342 2.370666,-0.99342 0.925689,0 1.715909,0.33866 2.370669,0.99342 0.65475,0.65476 0.99342,1.44498 0.99342,2.37067 0,0.92569 -0.33867,1.73849 -0.99342,2.39324 -0.65476,0.65476 -1.44498,0.97085 -2.370669,0.97085 -0.925689,0 -1.738489,-0.31609 -2.393244,-0.97085 -0.654756,-0.65475 -0.970845,-1.46755 -0.970845,-2.39324 z"
         style="font-size:22.57777786px;fill:#1c1c24;stroke-width:0.26458332"
         id="path4606"
         inkscape:connector-curvature="0" />
      <path
         d="m 105.81479,277.3793 v 4.35751 c 0,0.4064 0.2032,0.6096 0.58702,0.6096 0.4064,0 0.6096,-0.2032 0.6096,-0.6096 v -4.33493 c 0.11289,-0.83538 0.47413,-1.53529 1.10631,-2.09974 0.63218,-0.56444 1.37725,-0.83537 2.21262,-0.83537 0.92569,0 1.71591,0.31608 2.37067,0.94826 0.65476,0.63218 0.99342,1.39982 0.99342,2.32551 v 4.01885 c 0,0.38382 0.2032,0.58702 0.6096,0.58702 0.38382,0 0.58702,-0.2032 0.58702,-0.58702 v -4.04142 c 0,-1.24178 -0.45155,-2.30294 -1.33208,-3.16089 -0.88054,-0.85796 -1.96427,-1.28694 -3.22863,-1.28694 -1.06115,0 -2.09973,0.4064 -3.07057,1.24178 -0.97085,0.8128 -1.44498,1.76107 -1.44498,2.86738 z"
         style="font-size:22.57777786px;fill:#1c1c24;stroke-width:0.26458332"
         id="path4608"
         inkscape:connector-curvature="0" />
      <path
         d="m 126.44135,277.5825 v 0.58702 c 0,0.88053 -0.33867,1.6256 -1.016,2.19005 -0.67733,0.56444 -1.46755,0.83537 -2.37067,0.83537 -0.38382,0 -0.58702,0.2032 -0.58702,0.58703 0,0.4064 0.2032,0.6096 0.58702,0.6096 1.24178,0 2.32552,-0.38383 3.22863,-1.17405 0.90311,-0.79022 1.35466,-1.80622 1.35466,-3.048 v -0.58702 c 0,-0.88053 0.33867,-1.6256 0.99343,-2.21262 0.67733,-0.6096 1.46755,-0.90311 2.37066,-0.90311 0.4064,0 0.6096,-0.2032 0.6096,-0.58703 0,-0.4064 -0.2032,-0.6096 -0.6096,-0.6096 -1.24178,0 -2.30293,0.4064 -3.20604,1.24178 -0.90311,0.8128 -1.35467,1.8288 -1.35467,3.07058 z"
         style="font-size:22.57777786px;fill:#1c1c24;stroke-width:0.26458332"
         id="path4610"
         inkscape:connector-curvature="0" />
      <path
         d="m 137.3189,281.17237 c -0.99343,0 -1.80623,-0.4064 -2.46098,-1.24178 -0.6096,-0.76765 -0.90311,-1.67076 -0.90311,-2.68676 v -3.58986 h 3.40924 c 0.38382,0 0.58702,-0.2032 0.58702,-0.6096 0,-0.38383 -0.2032,-0.58703 -0.58702,-0.58703 h -3.40924 v -3.8608 c 0,-0.4064 -0.2032,-0.6096 -0.6096,-0.6096 -0.38382,0 -0.58702,0.2032 -0.58702,0.6096 v 8.64729 c 0,1.35467 0.4064,2.52871 1.24177,3.54471 0.88054,1.06116 1.98685,1.58045 3.31894,1.58045 0.38382,0 0.58702,-0.2032 0.58702,-0.58702 0,-0.4064 -0.2032,-0.6096 -0.58702,-0.6096 z"
         style="font-size:22.57777786px;fill:#1c1c24;stroke-width:0.26458332"
         id="path4612"
         inkscape:connector-curvature="0" />
      <path
         d="m 141.15043,273.24757 c -0.38382,0 -0.58702,0.2032 -0.58702,0.58702 v 4.13173 c 0,1.24178 0.45155,2.30293 1.33209,3.16089 0.88053,0.85796 1.96426,1.28693 3.22862,1.28693 1.10631,0 2.14489,-0.4064 3.09315,-1.2192 0.94827,-0.8128 1.4224,-1.76106 1.4224,-2.86737 v -4.4704 c 0,-0.4064 -0.2032,-0.6096 -0.58702,-0.6096 -0.4064,0 -0.6096,0.2032 -0.6096,0.6096 v 4.42524 c -0.2032,1.69333 -1.60302,2.93511 -3.31893,2.93511 -0.92569,0 -1.73849,-0.31609 -2.39325,-0.92569 -0.65475,-0.63218 -0.97084,-1.4224 -0.97084,-2.34809 v -4.10915 c 0,-0.38382 -0.2032,-0.58702 -0.6096,-0.58702 z"
         style="font-size:22.57777786px;fill:#1c1c24;stroke-width:0.26458332"
         id="path4614"
         inkscape:connector-curvature="0" />
      <path
         d="m 161.37059,268.57397 c 0,-0.4064 -0.2032,-0.6096 -0.58702,-0.6096 -0.4064,0 -0.6096,0.2032 -0.6096,0.6096 v 6.16373 c -0.90311,-0.99342 -2.032,-1.49013 -3.36409,-1.49013 -1.26436,0 -2.34809,0.45155 -3.22862,1.33208 -0.88054,0.88054 -1.33209,1.96427 -1.33209,3.22863 0,1.26435 0.45155,2.34809 1.33209,3.22862 0.88053,0.88053 1.96426,1.33209 3.22862,1.33209 1.28693,0 2.34809,-0.42898 3.22862,-1.30951 0.88053,-0.88054 1.33209,-1.96427 1.33209,-3.2512 z m -4.56071,12.5984 c -0.92569,0 -1.73849,-0.31609 -2.39325,-0.97085 -0.65475,-0.65475 -0.97084,-1.46755 -0.97084,-2.39324 0,-0.92569 0.31609,-1.71591 0.97084,-2.37067 0.65476,-0.65476 1.46756,-0.99342 2.39325,-0.99342 0.92569,0 1.71591,0.33866 2.37067,0.99342 0.65475,0.65476 0.99342,1.44498 0.99342,2.37067 0,0.92569 -0.33867,1.73849 -0.99342,2.39324 -0.65476,0.65476 -1.44498,0.97085 -2.37067,0.97085 z"
         style="font-size:22.57777786px;fill:#1c1c24;stroke-width:0.26458332"
         id="path4616"
         inkscape:connector-curvature="0" />
      <path
         d="m 168.69778,281.17237 c -0.97084,0 -1.76106,-0.31609 -2.41582,-0.97085 -0.63218,-0.65475 -0.94827,-1.44498 -0.94827,-2.39324 v -3.95111 c 0,-0.38383 -0.2032,-0.58703 -0.6096,-0.58703 -0.38382,0 -0.58702,0.2032 -0.58702,0.58703 v 3.8608 0.0226 0.0677 c 0,1.28693 0.42898,2.37066 1.30951,3.2512 0.88054,0.88053 1.96427,1.30951 3.2512,1.30951 0.38382,0 0.58702,-0.2032 0.58702,-0.58702 0,-0.4064 -0.2032,-0.6096 -0.58702,-0.6096 z m -4.71875,-12.32747 v 0.0226 c 0,0.51929 0.24835,0.76764 0.74506,0.76764 0.49671,0 0.74507,-0.24835 0.74507,-0.76764 v -0.0226 c 0,-0.51929 -0.24836,-0.76765 -0.74507,-0.76765 -0.49671,0 -0.74506,0.24836 -0.74506,0.76765 z"
         style="font-size:22.57777786px;fill:#1c1c24;stroke-width:0.26458332"
         id="path4618"
         inkscape:connector-curvature="0" />
      <path
         d="m 171.87243,277.80828 c 0,1.26435 0.45155,2.34809 1.33209,3.22862 0.88053,0.88053 1.96426,1.33209 3.22862,1.33209 1.28693,0 2.34809,-0.42898 3.22862,-1.30951 0.88053,-0.88054 1.33209,-1.96427 1.33209,-3.2512 0,-1.26436 -0.45156,-2.34809 -1.33209,-3.22863 -0.88053,-0.88053 -1.96427,-1.33208 -3.22862,-1.33208 -1.26436,0 -2.34809,0.45155 -3.22862,1.33208 -0.88054,0.88054 -1.33209,1.96427 -1.33209,3.22863 z m 1.19662,0 c 0,-0.92569 0.31609,-1.71591 0.97084,-2.37067 0.65476,-0.65476 1.46756,-0.99342 2.39325,-0.99342 0.92569,0 1.71591,0.33866 2.37067,0.99342 0.65475,0.65476 0.99342,1.44498 0.99342,2.37067 0,0.92569 -0.33867,1.73849 -0.99342,2.39324 -0.65476,0.65476 -1.44498,0.97085 -2.37067,0.97085 -0.92569,0 -1.73849,-0.31609 -2.39325,-0.97085 -0.65475,-0.65475 -0.97084,-1.46755 -0.97084,-2.39324 z"
         style="font-size:22.57777786px;fill:#1c1c24;stroke-width:0.26458332"
         id="path4620"
         inkscape:connector-curvature="0" />
    </g>
  </g>
</svg>
